<?xml version="1.0" encoding="UTF-8"?>
<svg xmlns="http://www.w3.org/2000/svg" 
     viewBox="10026.8 1134.0 2328.5 1026.0" 
     width="2328.5" height="1026.0"
     style="shape-rendering:geometricPrecision; image-rendering:optimizeQuality; fill-rule:evenodd; clip-rule:evenodd">
<ns0:defs xmlns:ns0="http://www.w3.org/2000/svg" id="defs4">
  <ns0:style type="text/css" id="style6">
   
    .str45 {stroke:#018A00;stroke-width:33.87}
    .str122 {stroke:#6B6B6B;stroke-width:33.87}
    .str0 {stroke:#C60A09;stroke-width:33.87}
    .str90 {stroke:#FFA502;stroke-width:33.87}
    .str87 {stroke:#018A00;stroke-width:22.02}
    .str151 {stroke:#6B6B6B;stroke-width:22.02}
    .str42 {stroke:#C60A09;stroke-width:22.02}
    .str119 {stroke:#FFA502;stroke-width:22.02}
    .str57 {stroke:#048E00;stroke-width:33.33}
    .str129 {stroke:#6B6B6B;stroke-width:33.33}
    .str12 {stroke:#C80D00;stroke-width:33.33}
    .str97 {stroke:#FFA502;stroke-width:33.33}
    .str77 {stroke:#018A00;stroke-width:34.2}
    .str78 {stroke:#048E00;stroke-width:34.2}
    .str144 {stroke:#6B6B6B;stroke-width:34.2}
    .str32 {stroke:#C60A09;stroke-width:34.2}
    .str33 {stroke:#C80D00;stroke-width:34.2}
    .str112 {stroke:#FFA502;stroke-width:34.2}
    .str79 {stroke:#018A00;stroke-width:35.37}
    .str80 {stroke:#048E00;stroke-width:35.37}
    .str145 {stroke:#6B6B6B;stroke-width:35.37}
    .str34 {stroke:#C60A09;stroke-width:35.37}
    .str35 {stroke:#C80D00;stroke-width:35.37}
    .str113 {stroke:#FFA502;stroke-width:35.37}
    .str59 {stroke:#018A00;stroke-width:35.47}
    .str60 {stroke:#048E00;stroke-width:35.47}
    .str131 {stroke:#6B6B6B;stroke-width:35.47}
    .str14 {stroke:#C60A09;stroke-width:35.47}
    .str15 {stroke:#C80D00;stroke-width:35.47}
    .str99 {stroke:#FFA502;stroke-width:35.47}
    .str86 {stroke:#048E00;stroke-width:35.54}
    .str150 {stroke:#6B6B6B;stroke-width:35.54}
    .str41 {stroke:#C80D00;stroke-width:35.54}
    .str118 {stroke:#FFA502;stroke-width:35.54}
    .str70 {stroke:#018A00;stroke-width:35.64}
    .str71 {stroke:#048E00;stroke-width:35.64}
    .str139 {stroke:#6B6B6B;stroke-width:35.64}
    .str25 {stroke:#C60A09;stroke-width:35.64}
    .str26 {stroke:#C80D00;stroke-width:35.64}
    .str107 {stroke:#FFA502;stroke-width:35.64}
    .str72 {stroke:#018A00;stroke-width:35.96}
    .str73 {stroke:#048E00;stroke-width:35.96}
    .str140 {stroke:#6B6B6B;stroke-width:35.96}
    .str27 {stroke:#C60A09;stroke-width:35.96}
    .str28 {stroke:#C80D00;stroke-width:35.96}
    .str108 {stroke:#FFA502;stroke-width:35.96}
    .str81 {stroke:#048E00;stroke-width:36.26}
    .str146 {stroke:#6B6B6B;stroke-width:36.26}
    .str36 {stroke:#C80D00;stroke-width:36.26}
    .str114 {stroke:#FFA502;stroke-width:36.26}
    .str50 {stroke:#018A00;stroke-width:36.34}
    .str51 {stroke:#048E00;stroke-width:36.34}
    .str125 {stroke:#6B6B6B;stroke-width:36.34}
    .str5 {stroke:#C60A09;stroke-width:36.34}
    .str6 {stroke:#C80D00;stroke-width:36.34}
    .str93 {stroke:#FFA502;stroke-width:36.34}
    .str76 {stroke:#048E00;stroke-width:36.42}
    .str143 {stroke:#6B6B6B;stroke-width:36.42}
    .str31 {stroke:#C80D00;stroke-width:36.42}
    .str111 {stroke:#FFA502;stroke-width:36.42}
    .str63 {stroke:#018A00;stroke-width:36.5}
    .str64 {stroke:#048E00;stroke-width:36.5}
    .str134 {stroke:#6B6B6B;stroke-width:36.5}
    .str18 {stroke:#C60A09;stroke-width:36.5}
    .str19 {stroke:#C80D00;stroke-width:36.5}
    .str102 {stroke:#FFA502;stroke-width:36.5}
    .str46 {stroke:#018A00;stroke-width:36.57}
    .str47 {stroke:#048E00;stroke-width:36.57}
    .str123 {stroke:#6B6B6B;stroke-width:36.57}
    .str1 {stroke:#C60A09;stroke-width:36.57}
    .str2 {stroke:#C80D00;stroke-width:36.57}
    .str91 {stroke:#FFA502;stroke-width:36.57}
    .str154 {stroke:#666666;stroke-width:36.88}
    .str61 {stroke:#048E00;stroke-width:37.27}
    .str132 {stroke:#6B6B6B;stroke-width:37.27}
    .str16 {stroke:#C80D00;stroke-width:37.27}
    .str100 {stroke:#FFA502;stroke-width:37.27}
    .str89 {stroke:#018A00;stroke-width:37.58}
    .str44 {stroke:#324984;stroke-width:37.58}
    .str153 {stroke:#6B6B6B;stroke-width:37.58}
    .str121 {stroke:#FFA502;stroke-width:37.58}
    .str48 {stroke:#018A00;stroke-width:38.14;stroke-linecap:round;stroke-linejoin:round}
    .str49 {stroke:#048E00;stroke-width:38.14;stroke-linecap:round;stroke-linejoin:round}
    .str124 {stroke:#6B6B6B;stroke-width:38.14;stroke-linecap:round;stroke-linejoin:round}
    .str3 {stroke:#C60A09;stroke-width:38.14;stroke-linecap:round;stroke-linejoin:round}
    .str4 {stroke:#C80D00;stroke-width:38.14;stroke-linecap:round;stroke-linejoin:round}
    .str92 {stroke:#FFA502;stroke-width:38.14;stroke-linecap:round;stroke-linejoin:round}
    .str84 {stroke:#048E00;stroke-width:38.23}
    .str148 {stroke:#6B6B6B;stroke-width:38.23}
    .str39 {stroke:#C80D00;stroke-width:38.23}
    .str116 {stroke:#FFA502;stroke-width:38.23}
    .str68 {stroke:#048E00;stroke-width:38.24}
    .str137 {stroke:#6B6B6B;stroke-width:38.24}
    .str23 {stroke:#C80D00;stroke-width:38.24}
    .str105 {stroke:#FFA502;stroke-width:38.24}
    .str69 {stroke:#048E00;stroke-width:38.42;stroke-linecap:round;stroke-linejoin:round}
    .str138 {stroke:#6B6B6B;stroke-width:38.42;stroke-linecap:round;stroke-linejoin:round}
    .str24 {stroke:#C80D00;stroke-width:38.42;stroke-linecap:round;stroke-linejoin:round}
    .str106 {stroke:#FFA502;stroke-width:38.42;stroke-linecap:round;stroke-linejoin:round}
    .str43 {stroke:#00B0DC;stroke-width:38.55}
    .str88 {stroke:#018A00;stroke-width:38.55}
    .str152 {stroke:#6B6B6B;stroke-width:38.55}
    .str120 {stroke:#FFA502;stroke-width:38.55}
    .str65 {stroke:#018A00;stroke-width:38.62}
    .str66 {stroke:#048E00;stroke-width:38.62}
    .str135 {stroke:#6B6B6B;stroke-width:38.62}
    .str20 {stroke:#C60A09;stroke-width:38.62}
    .str21 {stroke:#C80D00;stroke-width:38.62}
    .str103 {stroke:#FFA502;stroke-width:38.62}
    .str74 {stroke:#048E00;stroke-width:38.66}
    .str141 {stroke:#6B6B6B;stroke-width:38.66}
    .str29 {stroke:#C80D00;stroke-width:38.66}
    .str109 {stroke:#FFA502;stroke-width:38.66}
    .str75 {stroke:#048E00;stroke-width:38.88}
    .str142 {stroke:#6B6B6B;stroke-width:38.88}
    .str30 {stroke:#C80D00;stroke-width:38.88}
    .str110 {stroke:#FFA502;stroke-width:38.88}
    .str52 {stroke:#018A00;stroke-width:39}
    .str53 {stroke:#048E00;stroke-width:39}
    .str126 {stroke:#6B6B6B;stroke-width:39}
    .str7 {stroke:#C60A09;stroke-width:39}
    .str8 {stroke:#C80D00;stroke-width:39}
    .str94 {stroke:#FFA502;stroke-width:39}
    .str62 {stroke:#048E00;stroke-width:39.14}
    .str133 {stroke:#6B6B6B;stroke-width:39.14}
    .str17 {stroke:#C80D00;stroke-width:39.14}
    .str101 {stroke:#FFA502;stroke-width:39.14}
    .str82 {stroke:#018A00;stroke-width:39.18}
    .str83 {stroke:#048E00;stroke-width:39.18}
    .str147 {stroke:#6B6B6B;stroke-width:39.18}
    .str37 {stroke:#C60A09;stroke-width:39.18}
    .str38 {stroke:#C80D00;stroke-width:39.18}
    .str115 {stroke:#FFA502;stroke-width:39.18}
    .str85 {stroke:#048E00;stroke-width:39.62}
    .str149 {stroke:#6B6B6B;stroke-width:39.62}
    .str40 {stroke:#C80D00;stroke-width:39.62}
    .str117 {stroke:#FFA502;stroke-width:39.62}
    .str58 {stroke:#048E00;stroke-width:39.86}
    .str130 {stroke:#6B6B6B;stroke-width:39.86}
    .str13 {stroke:#C80D00;stroke-width:39.86}
    .str98 {stroke:#FFA502;stroke-width:39.86}
    .str55 {stroke:#018A00;stroke-width:39.96}
    .str56 {stroke:#048E00;stroke-width:39.96}
    .str128 {stroke:#6B6B6B;stroke-width:39.96}
    .str10 {stroke:#C60A09;stroke-width:39.96}
    .str11 {stroke:#C80D00;stroke-width:39.96}
    .str96 {stroke:#FFA502;stroke-width:39.96}
    .str54 {stroke:#048E00;stroke-width:40.62}
    .str127 {stroke:#6B6B6B;stroke-width:40.62}
    .str9 {stroke:#C80D00;stroke-width:40.62}
    .str95 {stroke:#FFA502;stroke-width:40.62}
    .str67 {stroke:#048E00;stroke-width:41.6}
    .str136 {stroke:#6B6B6B;stroke-width:41.6}
    .str22 {stroke:#C80D00;stroke-width:41.6}
    .str104 {stroke:#FFA502;stroke-width:41.6}
    .str156 {stroke:#119702;stroke-width:84.67;stroke-linecap:round;stroke-linejoin:round}
    .str158 {stroke:#747474;stroke-width:84.67;stroke-linecap:round;stroke-linejoin:round}
    .str155 {stroke:#CA1416;stroke-width:84.67;stroke-linecap:round;stroke-linejoin:round}
    .str157 {stroke:#FFB501;stroke-width:84.67;stroke-linecap:round;stroke-linejoin:round}
    .fil2 {fill:none}
    .fil21 {fill:none;fill-rule:nonzero}
    .fil36 {fill:#00B0DC}
    .fil24 {fill:#00CCFF}
    .fil50 {fill:#018A00}
    .fil64 {fill:#048E00}
    .fil51 {fill:#058D00}
    .fil52 {fill:#089001}
    .fil25 {fill:#0ACEFF}
    .fil53 {fill:#0C9301}
    .fil98 {fill:#0F9501}
    .fil54 {fill:#0F9602}
    .fil99 {fill:#119702}
    .fil55 {fill:#139902}
    .fil100 {fill:#149A02}
    .fil26 {fill:#15CFFE}
    .fil101 {fill:#169C02}
    .fil56 {fill:#169C03}
    .fil102 {fill:#199E03}
    .fil57 {fill:#1A9F03}
    .fil103 {fill:#1BA003}
    .fil58 {fill:#1DA204}
    .fil104 {fill:#1EA204}
    .fil27 {fill:#1FD1FE}
    .fil105 {fill:#20A404}
    .fil59 {fill:#21A504}
    .fil106 {fill:#23A704}
    .fil60 {fill:#24A805}
    .fil107 {fill:#25A905}
    .fil61 {fill:#28AB05}
    .fil28 {fill:#2AD3FD}
    .fil49 {fill:#324984}
    .fil29 {fill:#34D5FD}
    .fil1 {fill:#379F96}
    .fil37 {fill:#3B579D}
    .fil38 {fill:#3E5AA0}
    .fil0 {fill:#3FB8AF}
    .fil30 {fill:#3FD6FC}
    .fil39 {fill:#405CA3}
    .fil40 {fill:#435FA7}
    .fil41 {fill:#4662AA}
    .fil42 {fill:#4865AD}
    .fil31 {fill:#49D8FC}
    .fil43 {fill:#4B67B0}
    .fil44 {fill:#4D6AB3}
    .fil45 {fill:#506DB6}
    .fil46 {fill:#5370BA}
    .fil32 {fill:#54DAFB}
    .fil47 {fill:#5572BD}
    .fil48 {fill:#5875C0}
    .fil33 {fill:#5EDCFB}
    .fil91 {fill:#666666}
    .fil92 {fill:#686868}
    .fil34 {fill:#69DDFA}
    .fil78 {fill:#6B6B6B}
    .fil79 {fill:#6D6D6D}
    .fil80 {fill:#6F6F6F}
    .fil81 {fill:#717171}
    .fil93 {fill:#727272}
    .fil82 {fill:#737373}
    .fil35 {fill:#73DFFA}
    .fil94 {fill:#747474}
    .fil83 {fill:#757575}
    .fil84 {fill:#767676}
    .fil95 {fill:#777777}
    .fil85 {fill:#787878}
    .fil96 {fill:#797979}
    .fil86 {fill:#7A7A7A}
    .fil97 {fill:#7B7B7B}
    .fil87 {fill:#7C7C7C}
    .fil116 {fill:#7D7D7D}
    .fil88 {fill:#7E7E7E}
    .fil117 {fill:#7F7F7F}
    .fil89 {fill:gray}
    .fil4 {fill:#C60A09}
    .fil20 {fill:#C80D00}
    .fil5 {fill:#C80F0F}
    .fil6 {fill:#CA1416}
    .fil7 {fill:#CC191C}
    .fil8 {fill:#CE1E23}
    .fil9 {fill:#D02329}
    .fil10 {fill:#D12730}
    .fil11 {fill:#D32C36}
    .fil12 {fill:#D5313D}
    .fil13 {fill:#D73643}
    .fil14 {fill:#D93B4A}
    .fil15 {fill:#DB4050}
    .fil17 {fill:#E6E6E6}
    .fil65 {fill:#FFA502}
    .fil66 {fill:#FFA902}
    .fil67 {fill:#FFAC02}
    .fil68 {fill:#FFB001}
    .fil69 {fill:#FFB301}
    .fil108 {fill:#FFB501}
    .fil70 {fill:#FFB701}
    .fil109 {fill:#FFB801}
    .fil71 {fill:#FFBA01}
    .fil110 {fill:#FFBD01}
    .fil72 {fill:#FFBE01}
    .fil111 {fill:#FFBF00}
    .fil73 {fill:#FFC101}
    .fil112 {fill:#FFC200}
    .fil113 {fill:#FFC400}
    .fil74 {fill:#FFC500}
    .fil114 {fill:#FFC700}
    .fil75 {fill:#FFC800}
    .fil115 {fill:#FFC900}
    .fil76 {fill:#FFCC00}
    .fil3 {fill:white}
    .fil63 {fill:#018A00;fill-rule:nonzero}
    .fil62 {fill:#048E00;fill-rule:nonzero}
    .fil90 {fill:#6B6B6B;fill-rule:nonzero}
    .fil19 {fill:#C60A09;fill-rule:nonzero}
    .fil16 {fill:#C80D00;fill-rule:nonzero}
    .fil23 {fill:#E6E6E6;fill-rule:nonzero}
    .fil77 {fill:#FFA502;fill-rule:nonzero}
    .fil22 {fill:white;fill-rule:nonzero}
    .fil18 {fill:white;fill-opacity:0.501961}
   
  </ns0:style>
   <ns0:clipPath id="id0">
    <ns0:path d="M313 747l24774 0 0 20549 -24774 0 0 -20549z" id="path9" />
   </ns0:clipPath>
 
  
  
  
  
  
  
  
  
  
  
  
  
  
  
  
  
  
  
  
  
  
  
  
  
  
  
  
  
  
  
  
  
  
  
  
  
  
  
  
  
  
  
  
  
  
  
  
  
  
  
  
  
  
  
  
  
  
  
  
  
  
  
  
  
  
  
  
  
  
  
  
  
  
  
  
  
  
  
  
  
  
  
  
  
  
  
  
  
  
  
  
  
  
  
  
  
  
  
  
  
  
  
  
  
  
  
  
  
  
  
  
  
  
  
  
  
  
  
  
  
  
  
  
  
  
  
  
  
  
  
  
  
  
  
  
  
  
  
  
  
  
  
  
  
  
  
  
  
  
  
  
  
  
  
  
  
  
  
  
  
  
  
  
  
  
  
  
  
  
  
  
  
  
  
  
  
  
  
  
  
  
 
   
   
   
   
   
  </ns0:defs>
 
<ns0:style xmlns:ns0="http://www.w3.org/2000/svg" type="text/css" id="style6">
   
    .str45 {stroke:#018A00;stroke-width:33.87}
    .str122 {stroke:#6B6B6B;stroke-width:33.87}
    .str0 {stroke:#C60A09;stroke-width:33.87}
    .str90 {stroke:#FFA502;stroke-width:33.87}
    .str87 {stroke:#018A00;stroke-width:22.02}
    .str151 {stroke:#6B6B6B;stroke-width:22.02}
    .str42 {stroke:#C60A09;stroke-width:22.02}
    .str119 {stroke:#FFA502;stroke-width:22.02}
    .str57 {stroke:#048E00;stroke-width:33.33}
    .str129 {stroke:#6B6B6B;stroke-width:33.33}
    .str12 {stroke:#C80D00;stroke-width:33.33}
    .str97 {stroke:#FFA502;stroke-width:33.33}
    .str77 {stroke:#018A00;stroke-width:34.2}
    .str78 {stroke:#048E00;stroke-width:34.2}
    .str144 {stroke:#6B6B6B;stroke-width:34.2}
    .str32 {stroke:#C60A09;stroke-width:34.2}
    .str33 {stroke:#C80D00;stroke-width:34.2}
    .str112 {stroke:#FFA502;stroke-width:34.2}
    .str79 {stroke:#018A00;stroke-width:35.37}
    .str80 {stroke:#048E00;stroke-width:35.37}
    .str145 {stroke:#6B6B6B;stroke-width:35.37}
    .str34 {stroke:#C60A09;stroke-width:35.37}
    .str35 {stroke:#C80D00;stroke-width:35.37}
    .str113 {stroke:#FFA502;stroke-width:35.37}
    .str59 {stroke:#018A00;stroke-width:35.47}
    .str60 {stroke:#048E00;stroke-width:35.47}
    .str131 {stroke:#6B6B6B;stroke-width:35.47}
    .str14 {stroke:#C60A09;stroke-width:35.47}
    .str15 {stroke:#C80D00;stroke-width:35.47}
    .str99 {stroke:#FFA502;stroke-width:35.47}
    .str86 {stroke:#048E00;stroke-width:35.54}
    .str150 {stroke:#6B6B6B;stroke-width:35.54}
    .str41 {stroke:#C80D00;stroke-width:35.54}
    .str118 {stroke:#FFA502;stroke-width:35.54}
    .str70 {stroke:#018A00;stroke-width:35.64}
    .str71 {stroke:#048E00;stroke-width:35.64}
    .str139 {stroke:#6B6B6B;stroke-width:35.64}
    .str25 {stroke:#C60A09;stroke-width:35.64}
    .str26 {stroke:#C80D00;stroke-width:35.64}
    .str107 {stroke:#FFA502;stroke-width:35.64}
    .str72 {stroke:#018A00;stroke-width:35.96}
    .str73 {stroke:#048E00;stroke-width:35.96}
    .str140 {stroke:#6B6B6B;stroke-width:35.96}
    .str27 {stroke:#C60A09;stroke-width:35.96}
    .str28 {stroke:#C80D00;stroke-width:35.96}
    .str108 {stroke:#FFA502;stroke-width:35.96}
    .str81 {stroke:#048E00;stroke-width:36.26}
    .str146 {stroke:#6B6B6B;stroke-width:36.26}
    .str36 {stroke:#C80D00;stroke-width:36.26}
    .str114 {stroke:#FFA502;stroke-width:36.26}
    .str50 {stroke:#018A00;stroke-width:36.34}
    .str51 {stroke:#048E00;stroke-width:36.34}
    .str125 {stroke:#6B6B6B;stroke-width:36.34}
    .str5 {stroke:#C60A09;stroke-width:36.34}
    .str6 {stroke:#C80D00;stroke-width:36.34}
    .str93 {stroke:#FFA502;stroke-width:36.34}
    .str76 {stroke:#048E00;stroke-width:36.42}
    .str143 {stroke:#6B6B6B;stroke-width:36.42}
    .str31 {stroke:#C80D00;stroke-width:36.42}
    .str111 {stroke:#FFA502;stroke-width:36.42}
    .str63 {stroke:#018A00;stroke-width:36.5}
    .str64 {stroke:#048E00;stroke-width:36.5}
    .str134 {stroke:#6B6B6B;stroke-width:36.5}
    .str18 {stroke:#C60A09;stroke-width:36.5}
    .str19 {stroke:#C80D00;stroke-width:36.5}
    .str102 {stroke:#FFA502;stroke-width:36.5}
    .str46 {stroke:#018A00;stroke-width:36.57}
    .str47 {stroke:#048E00;stroke-width:36.57}
    .str123 {stroke:#6B6B6B;stroke-width:36.57}
    .str1 {stroke:#C60A09;stroke-width:36.57}
    .str2 {stroke:#C80D00;stroke-width:36.57}
    .str91 {stroke:#FFA502;stroke-width:36.57}
    .str154 {stroke:#666666;stroke-width:36.88}
    .str61 {stroke:#048E00;stroke-width:37.27}
    .str132 {stroke:#6B6B6B;stroke-width:37.27}
    .str16 {stroke:#C80D00;stroke-width:37.27}
    .str100 {stroke:#FFA502;stroke-width:37.27}
    .str89 {stroke:#018A00;stroke-width:37.58}
    .str44 {stroke:#324984;stroke-width:37.58}
    .str153 {stroke:#6B6B6B;stroke-width:37.58}
    .str121 {stroke:#FFA502;stroke-width:37.58}
    .str48 {stroke:#018A00;stroke-width:38.14;stroke-linecap:round;stroke-linejoin:round}
    .str49 {stroke:#048E00;stroke-width:38.14;stroke-linecap:round;stroke-linejoin:round}
    .str124 {stroke:#6B6B6B;stroke-width:38.14;stroke-linecap:round;stroke-linejoin:round}
    .str3 {stroke:#C60A09;stroke-width:38.14;stroke-linecap:round;stroke-linejoin:round}
    .str4 {stroke:#C80D00;stroke-width:38.14;stroke-linecap:round;stroke-linejoin:round}
    .str92 {stroke:#FFA502;stroke-width:38.14;stroke-linecap:round;stroke-linejoin:round}
    .str84 {stroke:#048E00;stroke-width:38.23}
    .str148 {stroke:#6B6B6B;stroke-width:38.23}
    .str39 {stroke:#C80D00;stroke-width:38.23}
    .str116 {stroke:#FFA502;stroke-width:38.23}
    .str68 {stroke:#048E00;stroke-width:38.24}
    .str137 {stroke:#6B6B6B;stroke-width:38.24}
    .str23 {stroke:#C80D00;stroke-width:38.24}
    .str105 {stroke:#FFA502;stroke-width:38.24}
    .str69 {stroke:#048E00;stroke-width:38.42;stroke-linecap:round;stroke-linejoin:round}
    .str138 {stroke:#6B6B6B;stroke-width:38.42;stroke-linecap:round;stroke-linejoin:round}
    .str24 {stroke:#C80D00;stroke-width:38.42;stroke-linecap:round;stroke-linejoin:round}
    .str106 {stroke:#FFA502;stroke-width:38.42;stroke-linecap:round;stroke-linejoin:round}
    .str43 {stroke:#00B0DC;stroke-width:38.55}
    .str88 {stroke:#018A00;stroke-width:38.55}
    .str152 {stroke:#6B6B6B;stroke-width:38.55}
    .str120 {stroke:#FFA502;stroke-width:38.55}
    .str65 {stroke:#018A00;stroke-width:38.62}
    .str66 {stroke:#048E00;stroke-width:38.62}
    .str135 {stroke:#6B6B6B;stroke-width:38.62}
    .str20 {stroke:#C60A09;stroke-width:38.62}
    .str21 {stroke:#C80D00;stroke-width:38.62}
    .str103 {stroke:#FFA502;stroke-width:38.62}
    .str74 {stroke:#048E00;stroke-width:38.66}
    .str141 {stroke:#6B6B6B;stroke-width:38.66}
    .str29 {stroke:#C80D00;stroke-width:38.66}
    .str109 {stroke:#FFA502;stroke-width:38.66}
    .str75 {stroke:#048E00;stroke-width:38.88}
    .str142 {stroke:#6B6B6B;stroke-width:38.88}
    .str30 {stroke:#C80D00;stroke-width:38.88}
    .str110 {stroke:#FFA502;stroke-width:38.88}
    .str52 {stroke:#018A00;stroke-width:39}
    .str53 {stroke:#048E00;stroke-width:39}
    .str126 {stroke:#6B6B6B;stroke-width:39}
    .str7 {stroke:#C60A09;stroke-width:39}
    .str8 {stroke:#C80D00;stroke-width:39}
    .str94 {stroke:#FFA502;stroke-width:39}
    .str62 {stroke:#048E00;stroke-width:39.14}
    .str133 {stroke:#6B6B6B;stroke-width:39.14}
    .str17 {stroke:#C80D00;stroke-width:39.14}
    .str101 {stroke:#FFA502;stroke-width:39.14}
    .str82 {stroke:#018A00;stroke-width:39.18}
    .str83 {stroke:#048E00;stroke-width:39.18}
    .str147 {stroke:#6B6B6B;stroke-width:39.18}
    .str37 {stroke:#C60A09;stroke-width:39.18}
    .str38 {stroke:#C80D00;stroke-width:39.18}
    .str115 {stroke:#FFA502;stroke-width:39.18}
    .str85 {stroke:#048E00;stroke-width:39.62}
    .str149 {stroke:#6B6B6B;stroke-width:39.62}
    .str40 {stroke:#C80D00;stroke-width:39.62}
    .str117 {stroke:#FFA502;stroke-width:39.62}
    .str58 {stroke:#048E00;stroke-width:39.86}
    .str130 {stroke:#6B6B6B;stroke-width:39.86}
    .str13 {stroke:#C80D00;stroke-width:39.86}
    .str98 {stroke:#FFA502;stroke-width:39.86}
    .str55 {stroke:#018A00;stroke-width:39.96}
    .str56 {stroke:#048E00;stroke-width:39.96}
    .str128 {stroke:#6B6B6B;stroke-width:39.96}
    .str10 {stroke:#C60A09;stroke-width:39.96}
    .str11 {stroke:#C80D00;stroke-width:39.96}
    .str96 {stroke:#FFA502;stroke-width:39.96}
    .str54 {stroke:#048E00;stroke-width:40.62}
    .str127 {stroke:#6B6B6B;stroke-width:40.62}
    .str9 {stroke:#C80D00;stroke-width:40.62}
    .str95 {stroke:#FFA502;stroke-width:40.62}
    .str67 {stroke:#048E00;stroke-width:41.6}
    .str136 {stroke:#6B6B6B;stroke-width:41.6}
    .str22 {stroke:#C80D00;stroke-width:41.6}
    .str104 {stroke:#FFA502;stroke-width:41.6}
    .str156 {stroke:#119702;stroke-width:84.67;stroke-linecap:round;stroke-linejoin:round}
    .str158 {stroke:#747474;stroke-width:84.67;stroke-linecap:round;stroke-linejoin:round}
    .str155 {stroke:#CA1416;stroke-width:84.67;stroke-linecap:round;stroke-linejoin:round}
    .str157 {stroke:#FFB501;stroke-width:84.67;stroke-linecap:round;stroke-linejoin:round}
    .fil2 {fill:none}
    .fil21 {fill:none;fill-rule:nonzero}
    .fil36 {fill:#00B0DC}
    .fil24 {fill:#00CCFF}
    .fil50 {fill:#018A00}
    .fil64 {fill:#048E00}
    .fil51 {fill:#058D00}
    .fil52 {fill:#089001}
    .fil25 {fill:#0ACEFF}
    .fil53 {fill:#0C9301}
    .fil98 {fill:#0F9501}
    .fil54 {fill:#0F9602}
    .fil99 {fill:#119702}
    .fil55 {fill:#139902}
    .fil100 {fill:#149A02}
    .fil26 {fill:#15CFFE}
    .fil101 {fill:#169C02}
    .fil56 {fill:#169C03}
    .fil102 {fill:#199E03}
    .fil57 {fill:#1A9F03}
    .fil103 {fill:#1BA003}
    .fil58 {fill:#1DA204}
    .fil104 {fill:#1EA204}
    .fil27 {fill:#1FD1FE}
    .fil105 {fill:#20A404}
    .fil59 {fill:#21A504}
    .fil106 {fill:#23A704}
    .fil60 {fill:#24A805}
    .fil107 {fill:#25A905}
    .fil61 {fill:#28AB05}
    .fil28 {fill:#2AD3FD}
    .fil49 {fill:#324984}
    .fil29 {fill:#34D5FD}
    .fil1 {fill:#379F96}
    .fil37 {fill:#3B579D}
    .fil38 {fill:#3E5AA0}
    .fil0 {fill:#3FB8AF}
    .fil30 {fill:#3FD6FC}
    .fil39 {fill:#405CA3}
    .fil40 {fill:#435FA7}
    .fil41 {fill:#4662AA}
    .fil42 {fill:#4865AD}
    .fil31 {fill:#49D8FC}
    .fil43 {fill:#4B67B0}
    .fil44 {fill:#4D6AB3}
    .fil45 {fill:#506DB6}
    .fil46 {fill:#5370BA}
    .fil32 {fill:#54DAFB}
    .fil47 {fill:#5572BD}
    .fil48 {fill:#5875C0}
    .fil33 {fill:#5EDCFB}
    .fil91 {fill:#666666}
    .fil92 {fill:#686868}
    .fil34 {fill:#69DDFA}
    .fil78 {fill:#6B6B6B}
    .fil79 {fill:#6D6D6D}
    .fil80 {fill:#6F6F6F}
    .fil81 {fill:#717171}
    .fil93 {fill:#727272}
    .fil82 {fill:#737373}
    .fil35 {fill:#73DFFA}
    .fil94 {fill:#747474}
    .fil83 {fill:#757575}
    .fil84 {fill:#767676}
    .fil95 {fill:#777777}
    .fil85 {fill:#787878}
    .fil96 {fill:#797979}
    .fil86 {fill:#7A7A7A}
    .fil97 {fill:#7B7B7B}
    .fil87 {fill:#7C7C7C}
    .fil116 {fill:#7D7D7D}
    .fil88 {fill:#7E7E7E}
    .fil117 {fill:#7F7F7F}
    .fil89 {fill:gray}
    .fil4 {fill:#C60A09}
    .fil20 {fill:#C80D00}
    .fil5 {fill:#C80F0F}
    .fil6 {fill:#CA1416}
    .fil7 {fill:#CC191C}
    .fil8 {fill:#CE1E23}
    .fil9 {fill:#D02329}
    .fil10 {fill:#D12730}
    .fil11 {fill:#D32C36}
    .fil12 {fill:#D5313D}
    .fil13 {fill:#D73643}
    .fil14 {fill:#D93B4A}
    .fil15 {fill:#DB4050}
    .fil17 {fill:#E6E6E6}
    .fil65 {fill:#FFA502}
    .fil66 {fill:#FFA902}
    .fil67 {fill:#FFAC02}
    .fil68 {fill:#FFB001}
    .fil69 {fill:#FFB301}
    .fil108 {fill:#FFB501}
    .fil70 {fill:#FFB701}
    .fil109 {fill:#FFB801}
    .fil71 {fill:#FFBA01}
    .fil110 {fill:#FFBD01}
    .fil72 {fill:#FFBE01}
    .fil111 {fill:#FFBF00}
    .fil73 {fill:#FFC101}
    .fil112 {fill:#FFC200}
    .fil113 {fill:#FFC400}
    .fil74 {fill:#FFC500}
    .fil114 {fill:#FFC700}
    .fil75 {fill:#FFC800}
    .fil115 {fill:#FFC900}
    .fil76 {fill:#FFCC00}
    .fil3 {fill:white}
    .fil63 {fill:#018A00;fill-rule:nonzero}
    .fil62 {fill:#048E00;fill-rule:nonzero}
    .fil90 {fill:#6B6B6B;fill-rule:nonzero}
    .fil19 {fill:#C60A09;fill-rule:nonzero}
    .fil16 {fill:#C80D00;fill-rule:nonzero}
    .fil23 {fill:#E6E6E6;fill-rule:nonzero}
    .fil77 {fill:#FFA502;fill-rule:nonzero}
    .fil22 {fill:white;fill-rule:nonzero}
    .fil18 {fill:white;fill-opacity:0.501961}
   
  </ns0:style>
   
<ns0:g xmlns:ns0="http://www.w3.org/2000/svg" xmlns:ns1="http://www.inkscape.org/namespaces/inkscape" id="g11142">
   <ns0:path style="fill:#ffffff" ns1:connector-curvature="0" id="path11144" d="m 10564,1172 1253,0 c 249,0 452,213 452,475 l 0,0 c 0,261 -203,475 -452,475 l -1253,0 c -248,0 -451,-214 -451,-475 l 0,0 c 0,-262 203,-475 451,-475 z m 16,30 1222,0 c 242,0 440,200 440,445 l 0,0 c 0,244 -198,444 -440,444 l -1222,0 c -242,0 -440,-200 -440,-444 l 0,0 c 0,-245 198,-445 440,-445 z" class="fil3" />
   <ns0:g id="g11146">
    <ns0:path style="fill:#0c9301" ns1:connector-curvature="0" id="path11148" d="m 10582,1271 1218,0 c 206,0 375,169 375,376 l 0,0 c 0,206 -169,375 -375,375 l -1218,0 c -207,0 -376,-169 -376,-375 l 0,0 c 0,-207 169,-376 376,-376 z" class="fil53" />
    <ns0:g id="g11150">
     <ns0:path style="fill:#0f9501" ns1:connector-curvature="0" id="path11152" d="m 10598,1316 c 395,0 790,0 1185,0 193,0 351,158 351,352 0,0 0,0 0,0 0,193 -158,351 -351,351 -395,0 -790,0 -1185,0 -193,0 -351,-158 -351,-351 0,0 0,0 0,0 0,-194 158,-352 351,-352 z" class="fil98" />
     <ns0:path style="fill:#119702" ns1:connector-curvature="0" id="path11154" d="m 10615,1362 c 384,0 768,0 1151,0 180,0 328,147 328,327 0,0 0,0 0,0 0,180 -148,327 -328,327 -383,0 -767,0 -1151,0 -180,0 -327,-147 -327,-327 0,0 0,0 0,0 0,-180 147,-327 327,-327 z" class="fil99" />
     <ns0:path style="fill:#149a02" ns1:connector-curvature="0" id="path11156" d="m 10631,1407 c 373,0 746,0 1119,0 166,0 303,136 303,303 0,0 0,0 0,0 0,167 -137,303 -303,303 -373,0 -746,0 -1119,0 -166,0 -302,-136 -302,-303 0,0 0,0 0,0 0,-167 136,-303 302,-303 z" class="fil100" />
     <ns0:path style="fill:#169c02" ns1:connector-curvature="0" id="path11158" d="m 10648,1453 c 362,0 724,0 1085,0 154,0 279,125 279,278 0,0 0,0 0,0 0,153 -125,279 -279,279 -361,0 -723,0 -1085,0 -153,0 -279,-126 -279,-279 0,0 0,0 0,0 0,-153 126,-278 279,-278 z" class="fil101" />
     <ns0:path style="fill:#199e03" ns1:connector-curvature="0" id="path11160" d="m 10665,1498 c 350,0 701,0 1052,0 140,0 254,114 254,254 0,0 0,0 0,0 0,140 -114,254 -254,254 -351,0 -702,0 -1052,0 -140,0 -255,-114 -255,-254 0,0 0,0 0,0 0,-140 115,-254 255,-254 z" class="fil102" />
     <ns0:path style="fill:#1ba003" ns1:connector-curvature="0" id="path11162" d="m 10681,1543 c 340,0 680,0 1019,0 127,0 230,104 230,230 0,0 0,0 0,0 0,127 -103,230 -230,230 -339,0 -679,0 -1019,0 -126,0 -230,-103 -230,-230 0,0 0,0 0,0 0,-126 104,-230 230,-230 z" class="fil103" />
     <ns0:path style="fill:#1ea204" ns1:connector-curvature="0" id="path11164" d="m 10698,1589 c 328,0 657,0 986,0 113,0 205,92 205,205 0,0 0,0 0,0 0,113 -92,206 -205,206 -329,0 -658,0 -986,0 -113,0 -206,-93 -206,-206 0,0 0,0 0,0 0,-113 93,-205 206,-205 z" class="fil104" />
     <ns0:path style="fill:#20a404" ns1:connector-curvature="0" id="path11166" d="m 10714,1634 c 318,0 635,0 953,0 100,0 182,82 182,181 0,0 0,0 0,0 0,100 -82,182 -182,182 -318,0 -635,0 -953,0 -100,0 -181,-82 -181,-182 0,0 0,0 0,0 0,-99 81,-181 181,-181 z" class="fil105" />
     <ns0:path style="fill:#23a704" ns1:connector-curvature="0" id="path11168" d="m 10731,1679 c 306,0 613,0 920,0 86,0 157,71 157,158 0,0 0,0 0,0 0,86 -71,157 -157,157 -307,0 -614,0 -920,0 -87,0 -157,-71 -157,-157 0,0 0,0 0,0 0,-87 70,-158 157,-158 z" class="fil106" />
     <ns0:path style="fill:#25a905" ns1:connector-curvature="0" id="path11170" d="m 10747,1725 c 296,0 591,0 887,0 73,0 133,60 133,133 0,0 0,0 0,0 0,73 -60,133 -133,133 -296,0 -591,0 -887,0 -73,0 -132,-60 -132,-133 0,0 0,0 0,0 0,-73 59,-133 132,-133 z" class="fil107" />
    </ns0:g>
    <ns0:path style="fill:#28ab05" ns1:connector-curvature="0" id="path11172" d="m 10764,1770 853,0 c 60,0 109,49 109,109 l 0,0 c 0,59 -49,108 -109,108 l -853,0 c -60,0 -109,-49 -109,-108 l 0,0 c 0,-60 49,-109 109,-109 z" class="fil61" />
   </ns0:g>
   <ns0:path style="fill:#28ab05" ns1:connector-curvature="0" id="path11174" d="m 11800,1922 -1218,0 c -190,0 -348,-143 -373,-326 -2,17 -3,34 -3,51 0,206 169,375 376,375 l 1218,0 c 206,0 375,-169 375,-375 0,-17 -1,-34 -3,-51 -25,183 -183,326 -372,326 z" class="fil61" />
   <ns0:path style="fill:#28ab05" ns1:connector-curvature="0" id="path11176" d="m 10570,1324 1241,0 c 81,0 147,66 147,147 l 0,0 c 0,80 -66,146 -147,146 l -1241,0 c -80,0 -146,-66 -146,-146 l 0,0 c 0,-81 66,-147 146,-147 z" class="fil61" />
   <ns0:path style="fill:#ffffff;fill-opacity:0.5019609" ns1:connector-curvature="0" id="path11178" d="m 10564,1172 1253,0 c 249,0 452,213 452,475 l 0,0 c 0,261 -203,475 -452,475 l -1253,0 c -248,0 -451,-214 -451,-475 l 0,0 c 0,-262 203,-475 451,-475 z m 44,68 1166,0 c 231,0 420,183 420,407 l 0,0 c 0,223 -189,406 -420,406 l -1166,0 c -231,0 -420,-183 -420,-406 l 0,0 c 0,-224 189,-407 420,-407 z" class="fil18" />
   <ns0:path style="fill:#ffffff;fill-opacity:0.5019609" ns1:connector-curvature="0" id="path11180" d="m 10564,1172 1253,0 c 249,0 452,213 452,475 l 0,0 c 0,261 -203,475 -452,475 l -1253,0 c -248,0 -451,-214 -451,-475 l 0,0 c 0,-262 203,-475 451,-475 z m 1242,797 c -10,-50 34,-110 105,-140 47,-19 95,-21 130,-8 36,-51 57,-111 57,-174 l 0,0 c 0,-183 -171,-332 -380,-332 l -1031,0 c 41,86 -22,210 -146,281 -91,53 -190,64 -257,34 -1,6 -1,11 -1,17 l 0,0 c 0,182 171,331 380,331 l 1055,0 c 30,0 60,-3 88,-9 z" class="fil18" />
   <ns0:path style="fill:#ffffff" ns1:connector-curvature="0" id="path11182" d="m 10607,1283 c 21,53 -24,121 -102,153 -78,33 -158,16 -180,-36 -22,-52 24,-121 102,-153 77,-32 158,-16 180,36 z" class="fil3" />
   <ns0:path style="fill:#ffffff" ns1:connector-curvature="0" id="path11184" d="m 10299,1410 c 17,15 12,46 -10,70 -22,24 -53,32 -69,17 -16,-15 -11,-46 11,-70 21,-24 52,-31 68,-17 z" class="fil3" />
   <ns0:path style="fill:#ffffff" ns1:connector-curvature="0" id="path11186" d="m 11992,1923 c 17,42 -19,98 -82,124 -62,25 -127,12 -145,-30 -17,-42 19,-97 82,-123 62,-26 127,-13 145,29 z" class="fil3" />
  </ns0:g>
</svg>
