<?xml version="1.0" encoding="UTF-8"?>
<svg xmlns="http://www.w3.org/2000/svg" 
     viewBox="14191.6 5314.2 1145.9 1262.5" 
     width="1145.9" height="1262.5"
     style="shape-rendering:geometricPrecision; image-rendering:optimizeQuality; fill-rule:evenodd; clip-rule:evenodd">
<ns0:defs xmlns:ns0="http://www.w3.org/2000/svg" id="defs4">
  <ns0:style type="text/css" id="style6">
   
    .str45 {stroke:#018A00;stroke-width:33.87}
    .str122 {stroke:#6B6B6B;stroke-width:33.87}
    .str0 {stroke:#C60A09;stroke-width:33.87}
    .str90 {stroke:#FFA502;stroke-width:33.87}
    .str87 {stroke:#018A00;stroke-width:22.02}
    .str151 {stroke:#6B6B6B;stroke-width:22.02}
    .str42 {stroke:#C60A09;stroke-width:22.02}
    .str119 {stroke:#FFA502;stroke-width:22.02}
    .str57 {stroke:#048E00;stroke-width:33.33}
    .str129 {stroke:#6B6B6B;stroke-width:33.33}
    .str12 {stroke:#C80D00;stroke-width:33.33}
    .str97 {stroke:#FFA502;stroke-width:33.33}
    .str77 {stroke:#018A00;stroke-width:34.2}
    .str78 {stroke:#048E00;stroke-width:34.2}
    .str144 {stroke:#6B6B6B;stroke-width:34.2}
    .str32 {stroke:#C60A09;stroke-width:34.2}
    .str33 {stroke:#C80D00;stroke-width:34.2}
    .str112 {stroke:#FFA502;stroke-width:34.2}
    .str79 {stroke:#018A00;stroke-width:35.37}
    .str80 {stroke:#048E00;stroke-width:35.37}
    .str145 {stroke:#6B6B6B;stroke-width:35.37}
    .str34 {stroke:#C60A09;stroke-width:35.37}
    .str35 {stroke:#C80D00;stroke-width:35.37}
    .str113 {stroke:#FFA502;stroke-width:35.37}
    .str59 {stroke:#018A00;stroke-width:35.47}
    .str60 {stroke:#048E00;stroke-width:35.47}
    .str131 {stroke:#6B6B6B;stroke-width:35.47}
    .str14 {stroke:#C60A09;stroke-width:35.47}
    .str15 {stroke:#C80D00;stroke-width:35.47}
    .str99 {stroke:#FFA502;stroke-width:35.47}
    .str86 {stroke:#048E00;stroke-width:35.54}
    .str150 {stroke:#6B6B6B;stroke-width:35.54}
    .str41 {stroke:#C80D00;stroke-width:35.54}
    .str118 {stroke:#FFA502;stroke-width:35.54}
    .str70 {stroke:#018A00;stroke-width:35.64}
    .str71 {stroke:#048E00;stroke-width:35.64}
    .str139 {stroke:#6B6B6B;stroke-width:35.64}
    .str25 {stroke:#C60A09;stroke-width:35.64}
    .str26 {stroke:#C80D00;stroke-width:35.64}
    .str107 {stroke:#FFA502;stroke-width:35.64}
    .str72 {stroke:#018A00;stroke-width:35.96}
    .str73 {stroke:#048E00;stroke-width:35.96}
    .str140 {stroke:#6B6B6B;stroke-width:35.96}
    .str27 {stroke:#C60A09;stroke-width:35.96}
    .str28 {stroke:#C80D00;stroke-width:35.96}
    .str108 {stroke:#FFA502;stroke-width:35.96}
    .str81 {stroke:#048E00;stroke-width:36.26}
    .str146 {stroke:#6B6B6B;stroke-width:36.26}
    .str36 {stroke:#C80D00;stroke-width:36.26}
    .str114 {stroke:#FFA502;stroke-width:36.26}
    .str50 {stroke:#018A00;stroke-width:36.34}
    .str51 {stroke:#048E00;stroke-width:36.34}
    .str125 {stroke:#6B6B6B;stroke-width:36.34}
    .str5 {stroke:#C60A09;stroke-width:36.34}
    .str6 {stroke:#C80D00;stroke-width:36.34}
    .str93 {stroke:#FFA502;stroke-width:36.34}
    .str76 {stroke:#048E00;stroke-width:36.42}
    .str143 {stroke:#6B6B6B;stroke-width:36.42}
    .str31 {stroke:#C80D00;stroke-width:36.42}
    .str111 {stroke:#FFA502;stroke-width:36.42}
    .str63 {stroke:#018A00;stroke-width:36.5}
    .str64 {stroke:#048E00;stroke-width:36.5}
    .str134 {stroke:#6B6B6B;stroke-width:36.5}
    .str18 {stroke:#C60A09;stroke-width:36.5}
    .str19 {stroke:#C80D00;stroke-width:36.5}
    .str102 {stroke:#FFA502;stroke-width:36.5}
    .str46 {stroke:#018A00;stroke-width:36.57}
    .str47 {stroke:#048E00;stroke-width:36.57}
    .str123 {stroke:#6B6B6B;stroke-width:36.57}
    .str1 {stroke:#C60A09;stroke-width:36.57}
    .str2 {stroke:#C80D00;stroke-width:36.57}
    .str91 {stroke:#FFA502;stroke-width:36.57}
    .str154 {stroke:#666666;stroke-width:36.88}
    .str61 {stroke:#048E00;stroke-width:37.27}
    .str132 {stroke:#6B6B6B;stroke-width:37.27}
    .str16 {stroke:#C80D00;stroke-width:37.27}
    .str100 {stroke:#FFA502;stroke-width:37.27}
    .str89 {stroke:#018A00;stroke-width:37.58}
    .str44 {stroke:#324984;stroke-width:37.58}
    .str153 {stroke:#6B6B6B;stroke-width:37.58}
    .str121 {stroke:#FFA502;stroke-width:37.58}
    .str48 {stroke:#018A00;stroke-width:38.14;stroke-linecap:round;stroke-linejoin:round}
    .str49 {stroke:#048E00;stroke-width:38.14;stroke-linecap:round;stroke-linejoin:round}
    .str124 {stroke:#6B6B6B;stroke-width:38.14;stroke-linecap:round;stroke-linejoin:round}
    .str3 {stroke:#C60A09;stroke-width:38.14;stroke-linecap:round;stroke-linejoin:round}
    .str4 {stroke:#C80D00;stroke-width:38.14;stroke-linecap:round;stroke-linejoin:round}
    .str92 {stroke:#FFA502;stroke-width:38.14;stroke-linecap:round;stroke-linejoin:round}
    .str84 {stroke:#048E00;stroke-width:38.23}
    .str148 {stroke:#6B6B6B;stroke-width:38.23}
    .str39 {stroke:#C80D00;stroke-width:38.23}
    .str116 {stroke:#FFA502;stroke-width:38.23}
    .str68 {stroke:#048E00;stroke-width:38.24}
    .str137 {stroke:#6B6B6B;stroke-width:38.24}
    .str23 {stroke:#C80D00;stroke-width:38.24}
    .str105 {stroke:#FFA502;stroke-width:38.24}
    .str69 {stroke:#048E00;stroke-width:38.42;stroke-linecap:round;stroke-linejoin:round}
    .str138 {stroke:#6B6B6B;stroke-width:38.42;stroke-linecap:round;stroke-linejoin:round}
    .str24 {stroke:#C80D00;stroke-width:38.42;stroke-linecap:round;stroke-linejoin:round}
    .str106 {stroke:#FFA502;stroke-width:38.42;stroke-linecap:round;stroke-linejoin:round}
    .str43 {stroke:#00B0DC;stroke-width:38.55}
    .str88 {stroke:#018A00;stroke-width:38.55}
    .str152 {stroke:#6B6B6B;stroke-width:38.55}
    .str120 {stroke:#FFA502;stroke-width:38.55}
    .str65 {stroke:#018A00;stroke-width:38.62}
    .str66 {stroke:#048E00;stroke-width:38.62}
    .str135 {stroke:#6B6B6B;stroke-width:38.62}
    .str20 {stroke:#C60A09;stroke-width:38.62}
    .str21 {stroke:#C80D00;stroke-width:38.62}
    .str103 {stroke:#FFA502;stroke-width:38.62}
    .str74 {stroke:#048E00;stroke-width:38.66}
    .str141 {stroke:#6B6B6B;stroke-width:38.66}
    .str29 {stroke:#C80D00;stroke-width:38.66}
    .str109 {stroke:#FFA502;stroke-width:38.66}
    .str75 {stroke:#048E00;stroke-width:38.88}
    .str142 {stroke:#6B6B6B;stroke-width:38.88}
    .str30 {stroke:#C80D00;stroke-width:38.88}
    .str110 {stroke:#FFA502;stroke-width:38.88}
    .str52 {stroke:#018A00;stroke-width:39}
    .str53 {stroke:#048E00;stroke-width:39}
    .str126 {stroke:#6B6B6B;stroke-width:39}
    .str7 {stroke:#C60A09;stroke-width:39}
    .str8 {stroke:#C80D00;stroke-width:39}
    .str94 {stroke:#FFA502;stroke-width:39}
    .str62 {stroke:#048E00;stroke-width:39.14}
    .str133 {stroke:#6B6B6B;stroke-width:39.14}
    .str17 {stroke:#C80D00;stroke-width:39.14}
    .str101 {stroke:#FFA502;stroke-width:39.14}
    .str82 {stroke:#018A00;stroke-width:39.18}
    .str83 {stroke:#048E00;stroke-width:39.18}
    .str147 {stroke:#6B6B6B;stroke-width:39.18}
    .str37 {stroke:#C60A09;stroke-width:39.18}
    .str38 {stroke:#C80D00;stroke-width:39.18}
    .str115 {stroke:#FFA502;stroke-width:39.18}
    .str85 {stroke:#048E00;stroke-width:39.62}
    .str149 {stroke:#6B6B6B;stroke-width:39.62}
    .str40 {stroke:#C80D00;stroke-width:39.62}
    .str117 {stroke:#FFA502;stroke-width:39.62}
    .str58 {stroke:#048E00;stroke-width:39.86}
    .str130 {stroke:#6B6B6B;stroke-width:39.86}
    .str13 {stroke:#C80D00;stroke-width:39.86}
    .str98 {stroke:#FFA502;stroke-width:39.86}
    .str55 {stroke:#018A00;stroke-width:39.96}
    .str56 {stroke:#048E00;stroke-width:39.96}
    .str128 {stroke:#6B6B6B;stroke-width:39.96}
    .str10 {stroke:#C60A09;stroke-width:39.96}
    .str11 {stroke:#C80D00;stroke-width:39.96}
    .str96 {stroke:#FFA502;stroke-width:39.96}
    .str54 {stroke:#048E00;stroke-width:40.62}
    .str127 {stroke:#6B6B6B;stroke-width:40.62}
    .str9 {stroke:#C80D00;stroke-width:40.62}
    .str95 {stroke:#FFA502;stroke-width:40.62}
    .str67 {stroke:#048E00;stroke-width:41.6}
    .str136 {stroke:#6B6B6B;stroke-width:41.6}
    .str22 {stroke:#C80D00;stroke-width:41.6}
    .str104 {stroke:#FFA502;stroke-width:41.6}
    .str156 {stroke:#119702;stroke-width:84.67;stroke-linecap:round;stroke-linejoin:round}
    .str158 {stroke:#747474;stroke-width:84.67;stroke-linecap:round;stroke-linejoin:round}
    .str155 {stroke:#CA1416;stroke-width:84.67;stroke-linecap:round;stroke-linejoin:round}
    .str157 {stroke:#FFB501;stroke-width:84.67;stroke-linecap:round;stroke-linejoin:round}
    .fil2 {fill:none}
    .fil21 {fill:none;fill-rule:nonzero}
    .fil36 {fill:#00B0DC}
    .fil24 {fill:#00CCFF}
    .fil50 {fill:#018A00}
    .fil64 {fill:#048E00}
    .fil51 {fill:#058D00}
    .fil52 {fill:#089001}
    .fil25 {fill:#0ACEFF}
    .fil53 {fill:#0C9301}
    .fil98 {fill:#0F9501}
    .fil54 {fill:#0F9602}
    .fil99 {fill:#119702}
    .fil55 {fill:#139902}
    .fil100 {fill:#149A02}
    .fil26 {fill:#15CFFE}
    .fil101 {fill:#169C02}
    .fil56 {fill:#169C03}
    .fil102 {fill:#199E03}
    .fil57 {fill:#1A9F03}
    .fil103 {fill:#1BA003}
    .fil58 {fill:#1DA204}
    .fil104 {fill:#1EA204}
    .fil27 {fill:#1FD1FE}
    .fil105 {fill:#20A404}
    .fil59 {fill:#21A504}
    .fil106 {fill:#23A704}
    .fil60 {fill:#24A805}
    .fil107 {fill:#25A905}
    .fil61 {fill:#28AB05}
    .fil28 {fill:#2AD3FD}
    .fil49 {fill:#324984}
    .fil29 {fill:#34D5FD}
    .fil1 {fill:#379F96}
    .fil37 {fill:#3B579D}
    .fil38 {fill:#3E5AA0}
    .fil0 {fill:#3FB8AF}
    .fil30 {fill:#3FD6FC}
    .fil39 {fill:#405CA3}
    .fil40 {fill:#435FA7}
    .fil41 {fill:#4662AA}
    .fil42 {fill:#4865AD}
    .fil31 {fill:#49D8FC}
    .fil43 {fill:#4B67B0}
    .fil44 {fill:#4D6AB3}
    .fil45 {fill:#506DB6}
    .fil46 {fill:#5370BA}
    .fil32 {fill:#54DAFB}
    .fil47 {fill:#5572BD}
    .fil48 {fill:#5875C0}
    .fil33 {fill:#5EDCFB}
    .fil91 {fill:#666666}
    .fil92 {fill:#686868}
    .fil34 {fill:#69DDFA}
    .fil78 {fill:#6B6B6B}
    .fil79 {fill:#6D6D6D}
    .fil80 {fill:#6F6F6F}
    .fil81 {fill:#717171}
    .fil93 {fill:#727272}
    .fil82 {fill:#737373}
    .fil35 {fill:#73DFFA}
    .fil94 {fill:#747474}
    .fil83 {fill:#757575}
    .fil84 {fill:#767676}
    .fil95 {fill:#777777}
    .fil85 {fill:#787878}
    .fil96 {fill:#797979}
    .fil86 {fill:#7A7A7A}
    .fil97 {fill:#7B7B7B}
    .fil87 {fill:#7C7C7C}
    .fil116 {fill:#7D7D7D}
    .fil88 {fill:#7E7E7E}
    .fil117 {fill:#7F7F7F}
    .fil89 {fill:gray}
    .fil4 {fill:#C60A09}
    .fil20 {fill:#C80D00}
    .fil5 {fill:#C80F0F}
    .fil6 {fill:#CA1416}
    .fil7 {fill:#CC191C}
    .fil8 {fill:#CE1E23}
    .fil9 {fill:#D02329}
    .fil10 {fill:#D12730}
    .fil11 {fill:#D32C36}
    .fil12 {fill:#D5313D}
    .fil13 {fill:#D73643}
    .fil14 {fill:#D93B4A}
    .fil15 {fill:#DB4050}
    .fil17 {fill:#E6E6E6}
    .fil65 {fill:#FFA502}
    .fil66 {fill:#FFA902}
    .fil67 {fill:#FFAC02}
    .fil68 {fill:#FFB001}
    .fil69 {fill:#FFB301}
    .fil108 {fill:#FFB501}
    .fil70 {fill:#FFB701}
    .fil109 {fill:#FFB801}
    .fil71 {fill:#FFBA01}
    .fil110 {fill:#FFBD01}
    .fil72 {fill:#FFBE01}
    .fil111 {fill:#FFBF00}
    .fil73 {fill:#FFC101}
    .fil112 {fill:#FFC200}
    .fil113 {fill:#FFC400}
    .fil74 {fill:#FFC500}
    .fil114 {fill:#FFC700}
    .fil75 {fill:#FFC800}
    .fil115 {fill:#FFC900}
    .fil76 {fill:#FFCC00}
    .fil3 {fill:white}
    .fil63 {fill:#018A00;fill-rule:nonzero}
    .fil62 {fill:#048E00;fill-rule:nonzero}
    .fil90 {fill:#6B6B6B;fill-rule:nonzero}
    .fil19 {fill:#C60A09;fill-rule:nonzero}
    .fil16 {fill:#C80D00;fill-rule:nonzero}
    .fil23 {fill:#E6E6E6;fill-rule:nonzero}
    .fil77 {fill:#FFA502;fill-rule:nonzero}
    .fil22 {fill:white;fill-rule:nonzero}
    .fil18 {fill:white;fill-opacity:0.501961}
   
  </ns0:style>
   <ns0:clipPath id="id0">
    <ns0:path d="M313 747l24774 0 0 20549 -24774 0 0 -20549z" id="path9" />
   </ns0:clipPath>
 
  
  
  
  
  
  
  
  
  
  
  
  
  
  
  
  
  
  
  
  
  
  
  
  
  
  
  
  
  
  
  
  
  
  
  
  
  
  
  
  
  
  
  
  
  
  
  
  
  
  
  
  
  
  
  
  
  
  
  
  
  
  
  
  
  
  
  
  
  
  
  
  
  
  
  
  
  
  
  
  
  
  
  
  
  
  
  
  
  
  
  
  
  
  
  
  
  
  
  
  
  
  
  
  
  
  
  
  
  
  
  
  
  
  
  
  
  
  
  
  
  
  
  
  
  
  
  
  
  
  
  
  
  
  
  
  
  
  
  
  
  
  
  
  
  
  
  
  
  
  
  
  
  
  
  
  
  
  
  
  
  
  
  
  
  
  
  
  
  
  
  
  
  
  
  
  
  
  
  
  
  
 
   
   
   
   
   
  </ns0:defs>
 
<ns0:style xmlns:ns0="http://www.w3.org/2000/svg" type="text/css" id="style6">
   
    .str45 {stroke:#018A00;stroke-width:33.87}
    .str122 {stroke:#6B6B6B;stroke-width:33.87}
    .str0 {stroke:#C60A09;stroke-width:33.87}
    .str90 {stroke:#FFA502;stroke-width:33.87}
    .str87 {stroke:#018A00;stroke-width:22.02}
    .str151 {stroke:#6B6B6B;stroke-width:22.02}
    .str42 {stroke:#C60A09;stroke-width:22.02}
    .str119 {stroke:#FFA502;stroke-width:22.02}
    .str57 {stroke:#048E00;stroke-width:33.33}
    .str129 {stroke:#6B6B6B;stroke-width:33.33}
    .str12 {stroke:#C80D00;stroke-width:33.33}
    .str97 {stroke:#FFA502;stroke-width:33.33}
    .str77 {stroke:#018A00;stroke-width:34.2}
    .str78 {stroke:#048E00;stroke-width:34.2}
    .str144 {stroke:#6B6B6B;stroke-width:34.2}
    .str32 {stroke:#C60A09;stroke-width:34.2}
    .str33 {stroke:#C80D00;stroke-width:34.2}
    .str112 {stroke:#FFA502;stroke-width:34.2}
    .str79 {stroke:#018A00;stroke-width:35.37}
    .str80 {stroke:#048E00;stroke-width:35.37}
    .str145 {stroke:#6B6B6B;stroke-width:35.37}
    .str34 {stroke:#C60A09;stroke-width:35.37}
    .str35 {stroke:#C80D00;stroke-width:35.37}
    .str113 {stroke:#FFA502;stroke-width:35.37}
    .str59 {stroke:#018A00;stroke-width:35.47}
    .str60 {stroke:#048E00;stroke-width:35.47}
    .str131 {stroke:#6B6B6B;stroke-width:35.47}
    .str14 {stroke:#C60A09;stroke-width:35.47}
    .str15 {stroke:#C80D00;stroke-width:35.47}
    .str99 {stroke:#FFA502;stroke-width:35.47}
    .str86 {stroke:#048E00;stroke-width:35.54}
    .str150 {stroke:#6B6B6B;stroke-width:35.54}
    .str41 {stroke:#C80D00;stroke-width:35.54}
    .str118 {stroke:#FFA502;stroke-width:35.54}
    .str70 {stroke:#018A00;stroke-width:35.64}
    .str71 {stroke:#048E00;stroke-width:35.64}
    .str139 {stroke:#6B6B6B;stroke-width:35.64}
    .str25 {stroke:#C60A09;stroke-width:35.64}
    .str26 {stroke:#C80D00;stroke-width:35.64}
    .str107 {stroke:#FFA502;stroke-width:35.64}
    .str72 {stroke:#018A00;stroke-width:35.96}
    .str73 {stroke:#048E00;stroke-width:35.96}
    .str140 {stroke:#6B6B6B;stroke-width:35.96}
    .str27 {stroke:#C60A09;stroke-width:35.96}
    .str28 {stroke:#C80D00;stroke-width:35.96}
    .str108 {stroke:#FFA502;stroke-width:35.96}
    .str81 {stroke:#048E00;stroke-width:36.26}
    .str146 {stroke:#6B6B6B;stroke-width:36.26}
    .str36 {stroke:#C80D00;stroke-width:36.26}
    .str114 {stroke:#FFA502;stroke-width:36.26}
    .str50 {stroke:#018A00;stroke-width:36.34}
    .str51 {stroke:#048E00;stroke-width:36.34}
    .str125 {stroke:#6B6B6B;stroke-width:36.34}
    .str5 {stroke:#C60A09;stroke-width:36.34}
    .str6 {stroke:#C80D00;stroke-width:36.34}
    .str93 {stroke:#FFA502;stroke-width:36.34}
    .str76 {stroke:#048E00;stroke-width:36.42}
    .str143 {stroke:#6B6B6B;stroke-width:36.42}
    .str31 {stroke:#C80D00;stroke-width:36.42}
    .str111 {stroke:#FFA502;stroke-width:36.42}
    .str63 {stroke:#018A00;stroke-width:36.5}
    .str64 {stroke:#048E00;stroke-width:36.5}
    .str134 {stroke:#6B6B6B;stroke-width:36.5}
    .str18 {stroke:#C60A09;stroke-width:36.5}
    .str19 {stroke:#C80D00;stroke-width:36.5}
    .str102 {stroke:#FFA502;stroke-width:36.5}
    .str46 {stroke:#018A00;stroke-width:36.57}
    .str47 {stroke:#048E00;stroke-width:36.57}
    .str123 {stroke:#6B6B6B;stroke-width:36.57}
    .str1 {stroke:#C60A09;stroke-width:36.57}
    .str2 {stroke:#C80D00;stroke-width:36.57}
    .str91 {stroke:#FFA502;stroke-width:36.57}
    .str154 {stroke:#666666;stroke-width:36.88}
    .str61 {stroke:#048E00;stroke-width:37.27}
    .str132 {stroke:#6B6B6B;stroke-width:37.27}
    .str16 {stroke:#C80D00;stroke-width:37.27}
    .str100 {stroke:#FFA502;stroke-width:37.27}
    .str89 {stroke:#018A00;stroke-width:37.58}
    .str44 {stroke:#324984;stroke-width:37.58}
    .str153 {stroke:#6B6B6B;stroke-width:37.58}
    .str121 {stroke:#FFA502;stroke-width:37.58}
    .str48 {stroke:#018A00;stroke-width:38.14;stroke-linecap:round;stroke-linejoin:round}
    .str49 {stroke:#048E00;stroke-width:38.14;stroke-linecap:round;stroke-linejoin:round}
    .str124 {stroke:#6B6B6B;stroke-width:38.14;stroke-linecap:round;stroke-linejoin:round}
    .str3 {stroke:#C60A09;stroke-width:38.14;stroke-linecap:round;stroke-linejoin:round}
    .str4 {stroke:#C80D00;stroke-width:38.14;stroke-linecap:round;stroke-linejoin:round}
    .str92 {stroke:#FFA502;stroke-width:38.14;stroke-linecap:round;stroke-linejoin:round}
    .str84 {stroke:#048E00;stroke-width:38.23}
    .str148 {stroke:#6B6B6B;stroke-width:38.23}
    .str39 {stroke:#C80D00;stroke-width:38.23}
    .str116 {stroke:#FFA502;stroke-width:38.23}
    .str68 {stroke:#048E00;stroke-width:38.24}
    .str137 {stroke:#6B6B6B;stroke-width:38.24}
    .str23 {stroke:#C80D00;stroke-width:38.24}
    .str105 {stroke:#FFA502;stroke-width:38.24}
    .str69 {stroke:#048E00;stroke-width:38.42;stroke-linecap:round;stroke-linejoin:round}
    .str138 {stroke:#6B6B6B;stroke-width:38.42;stroke-linecap:round;stroke-linejoin:round}
    .str24 {stroke:#C80D00;stroke-width:38.42;stroke-linecap:round;stroke-linejoin:round}
    .str106 {stroke:#FFA502;stroke-width:38.42;stroke-linecap:round;stroke-linejoin:round}
    .str43 {stroke:#00B0DC;stroke-width:38.55}
    .str88 {stroke:#018A00;stroke-width:38.55}
    .str152 {stroke:#6B6B6B;stroke-width:38.55}
    .str120 {stroke:#FFA502;stroke-width:38.55}
    .str65 {stroke:#018A00;stroke-width:38.62}
    .str66 {stroke:#048E00;stroke-width:38.62}
    .str135 {stroke:#6B6B6B;stroke-width:38.62}
    .str20 {stroke:#C60A09;stroke-width:38.62}
    .str21 {stroke:#C80D00;stroke-width:38.62}
    .str103 {stroke:#FFA502;stroke-width:38.62}
    .str74 {stroke:#048E00;stroke-width:38.66}
    .str141 {stroke:#6B6B6B;stroke-width:38.66}
    .str29 {stroke:#C80D00;stroke-width:38.66}
    .str109 {stroke:#FFA502;stroke-width:38.66}
    .str75 {stroke:#048E00;stroke-width:38.88}
    .str142 {stroke:#6B6B6B;stroke-width:38.88}
    .str30 {stroke:#C80D00;stroke-width:38.88}
    .str110 {stroke:#FFA502;stroke-width:38.88}
    .str52 {stroke:#018A00;stroke-width:39}
    .str53 {stroke:#048E00;stroke-width:39}
    .str126 {stroke:#6B6B6B;stroke-width:39}
    .str7 {stroke:#C60A09;stroke-width:39}
    .str8 {stroke:#C80D00;stroke-width:39}
    .str94 {stroke:#FFA502;stroke-width:39}
    .str62 {stroke:#048E00;stroke-width:39.14}
    .str133 {stroke:#6B6B6B;stroke-width:39.14}
    .str17 {stroke:#C80D00;stroke-width:39.14}
    .str101 {stroke:#FFA502;stroke-width:39.14}
    .str82 {stroke:#018A00;stroke-width:39.18}
    .str83 {stroke:#048E00;stroke-width:39.18}
    .str147 {stroke:#6B6B6B;stroke-width:39.18}
    .str37 {stroke:#C60A09;stroke-width:39.18}
    .str38 {stroke:#C80D00;stroke-width:39.18}
    .str115 {stroke:#FFA502;stroke-width:39.18}
    .str85 {stroke:#048E00;stroke-width:39.62}
    .str149 {stroke:#6B6B6B;stroke-width:39.62}
    .str40 {stroke:#C80D00;stroke-width:39.62}
    .str117 {stroke:#FFA502;stroke-width:39.62}
    .str58 {stroke:#048E00;stroke-width:39.86}
    .str130 {stroke:#6B6B6B;stroke-width:39.86}
    .str13 {stroke:#C80D00;stroke-width:39.86}
    .str98 {stroke:#FFA502;stroke-width:39.86}
    .str55 {stroke:#018A00;stroke-width:39.96}
    .str56 {stroke:#048E00;stroke-width:39.96}
    .str128 {stroke:#6B6B6B;stroke-width:39.96}
    .str10 {stroke:#C60A09;stroke-width:39.96}
    .str11 {stroke:#C80D00;stroke-width:39.96}
    .str96 {stroke:#FFA502;stroke-width:39.96}
    .str54 {stroke:#048E00;stroke-width:40.62}
    .str127 {stroke:#6B6B6B;stroke-width:40.62}
    .str9 {stroke:#C80D00;stroke-width:40.62}
    .str95 {stroke:#FFA502;stroke-width:40.62}
    .str67 {stroke:#048E00;stroke-width:41.6}
    .str136 {stroke:#6B6B6B;stroke-width:41.6}
    .str22 {stroke:#C80D00;stroke-width:41.6}
    .str104 {stroke:#FFA502;stroke-width:41.6}
    .str156 {stroke:#119702;stroke-width:84.67;stroke-linecap:round;stroke-linejoin:round}
    .str158 {stroke:#747474;stroke-width:84.67;stroke-linecap:round;stroke-linejoin:round}
    .str155 {stroke:#CA1416;stroke-width:84.67;stroke-linecap:round;stroke-linejoin:round}
    .str157 {stroke:#FFB501;stroke-width:84.67;stroke-linecap:round;stroke-linejoin:round}
    .fil2 {fill:none}
    .fil21 {fill:none;fill-rule:nonzero}
    .fil36 {fill:#00B0DC}
    .fil24 {fill:#00CCFF}
    .fil50 {fill:#018A00}
    .fil64 {fill:#048E00}
    .fil51 {fill:#058D00}
    .fil52 {fill:#089001}
    .fil25 {fill:#0ACEFF}
    .fil53 {fill:#0C9301}
    .fil98 {fill:#0F9501}
    .fil54 {fill:#0F9602}
    .fil99 {fill:#119702}
    .fil55 {fill:#139902}
    .fil100 {fill:#149A02}
    .fil26 {fill:#15CFFE}
    .fil101 {fill:#169C02}
    .fil56 {fill:#169C03}
    .fil102 {fill:#199E03}
    .fil57 {fill:#1A9F03}
    .fil103 {fill:#1BA003}
    .fil58 {fill:#1DA204}
    .fil104 {fill:#1EA204}
    .fil27 {fill:#1FD1FE}
    .fil105 {fill:#20A404}
    .fil59 {fill:#21A504}
    .fil106 {fill:#23A704}
    .fil60 {fill:#24A805}
    .fil107 {fill:#25A905}
    .fil61 {fill:#28AB05}
    .fil28 {fill:#2AD3FD}
    .fil49 {fill:#324984}
    .fil29 {fill:#34D5FD}
    .fil1 {fill:#379F96}
    .fil37 {fill:#3B579D}
    .fil38 {fill:#3E5AA0}
    .fil0 {fill:#3FB8AF}
    .fil30 {fill:#3FD6FC}
    .fil39 {fill:#405CA3}
    .fil40 {fill:#435FA7}
    .fil41 {fill:#4662AA}
    .fil42 {fill:#4865AD}
    .fil31 {fill:#49D8FC}
    .fil43 {fill:#4B67B0}
    .fil44 {fill:#4D6AB3}
    .fil45 {fill:#506DB6}
    .fil46 {fill:#5370BA}
    .fil32 {fill:#54DAFB}
    .fil47 {fill:#5572BD}
    .fil48 {fill:#5875C0}
    .fil33 {fill:#5EDCFB}
    .fil91 {fill:#666666}
    .fil92 {fill:#686868}
    .fil34 {fill:#69DDFA}
    .fil78 {fill:#6B6B6B}
    .fil79 {fill:#6D6D6D}
    .fil80 {fill:#6F6F6F}
    .fil81 {fill:#717171}
    .fil93 {fill:#727272}
    .fil82 {fill:#737373}
    .fil35 {fill:#73DFFA}
    .fil94 {fill:#747474}
    .fil83 {fill:#757575}
    .fil84 {fill:#767676}
    .fil95 {fill:#777777}
    .fil85 {fill:#787878}
    .fil96 {fill:#797979}
    .fil86 {fill:#7A7A7A}
    .fil97 {fill:#7B7B7B}
    .fil87 {fill:#7C7C7C}
    .fil116 {fill:#7D7D7D}
    .fil88 {fill:#7E7E7E}
    .fil117 {fill:#7F7F7F}
    .fil89 {fill:gray}
    .fil4 {fill:#C60A09}
    .fil20 {fill:#C80D00}
    .fil5 {fill:#C80F0F}
    .fil6 {fill:#CA1416}
    .fil7 {fill:#CC191C}
    .fil8 {fill:#CE1E23}
    .fil9 {fill:#D02329}
    .fil10 {fill:#D12730}
    .fil11 {fill:#D32C36}
    .fil12 {fill:#D5313D}
    .fil13 {fill:#D73643}
    .fil14 {fill:#D93B4A}
    .fil15 {fill:#DB4050}
    .fil17 {fill:#E6E6E6}
    .fil65 {fill:#FFA502}
    .fil66 {fill:#FFA902}
    .fil67 {fill:#FFAC02}
    .fil68 {fill:#FFB001}
    .fil69 {fill:#FFB301}
    .fil108 {fill:#FFB501}
    .fil70 {fill:#FFB701}
    .fil109 {fill:#FFB801}
    .fil71 {fill:#FFBA01}
    .fil110 {fill:#FFBD01}
    .fil72 {fill:#FFBE01}
    .fil111 {fill:#FFBF00}
    .fil73 {fill:#FFC101}
    .fil112 {fill:#FFC200}
    .fil113 {fill:#FFC400}
    .fil74 {fill:#FFC500}
    .fil114 {fill:#FFC700}
    .fil75 {fill:#FFC800}
    .fil115 {fill:#FFC900}
    .fil76 {fill:#FFCC00}
    .fil3 {fill:white}
    .fil63 {fill:#018A00;fill-rule:nonzero}
    .fil62 {fill:#048E00;fill-rule:nonzero}
    .fil90 {fill:#6B6B6B;fill-rule:nonzero}
    .fil19 {fill:#C60A09;fill-rule:nonzero}
    .fil16 {fill:#C80D00;fill-rule:nonzero}
    .fil23 {fill:#E6E6E6;fill-rule:nonzero}
    .fil77 {fill:#FFA502;fill-rule:nonzero}
    .fil22 {fill:white;fill-rule:nonzero}
    .fil18 {fill:white;fill-opacity:0.501961}
   
  </ns0:style>
   
<ns0:g xmlns:ns0="http://www.w3.org/2000/svg" xmlns:ns1="http://www.inkscape.org/namespaces/inkscape" id="g4140">
   <ns0:path style="fill:#ffffff" ns1:connector-curvature="0" id="path4142" d="m 14398,6361 c -116,-112 -174,-258 -164,-419 13,-205 122,-382 294,-491 43,-27 88,-49 137,-68 84,-32 150,-34 237,-22 180,29 291,120 393,264 194,272 107,643 -174,817 -93,58 -200,88 -309,88 -154,-2 -304,-62 -414,-169 z m 16,-16 c -111,-108 -167,-248 -157,-403 12,-197 117,-367 282,-472 41,-26 85,-48 132,-66 80,-30 144,-32 228,-21 172,29 279,116 378,254 186,261 102,619 -168,786 -89,55 -192,84 -297,84 -148,-1 -292,-59 -398,-162 z" class="fil3" />
   <ns0:g id="g4144">
    <ns0:path style="fill:#018a00" ns1:connector-curvature="0" id="path4146" d="m 14491,6267 c -51,-49 -90,-110 -111,-179 -35,-113 -13,-254 47,-356 62,-107 156,-180 272,-224 64,-25 117,-27 184,-18 139,24 226,94 305,206 53,74 79,154 81,246 0,253 -204,457 -456,457 -120,-2 -237,-48 -322,-132 z" class="fil50" />
    <ns0:g id="g4148">
     <ns0:path style="fill:#058d00" ns1:connector-curvature="0" id="path4150" d="m 14508,6269 c -49,-47 -85,-104 -105,-169 -34,-106 -11,-243 44,-334 57,-98 150,-164 261,-204 66,-23 121,-25 183,-18 130,19 209,90 281,195 48,71 70,148 69,234 -3,232 -194,420 -428,420 -113,-2 -224,-46 -305,-124 z" class="fil51" />
     <ns0:path style="fill:#089001" ns1:connector-curvature="0" id="path4152" d="m 14524,6270 c -46,-44 -80,-97 -99,-158 -32,-99 -9,-233 42,-313 52,-87 143,-146 251,-183 67,-20 124,-23 182,-18 120,14 191,87 256,184 44,69 61,141 56,222 -6,212 -183,382 -399,382 -107,-1 -212,-42 -289,-116 z" class="fil52" />
     <ns0:path style="fill:#0c9301" ns1:connector-curvature="0" id="path4154" d="m 14541,6272 c -43,-41 -75,-91 -93,-148 -30,-93 -8,-222 39,-292 47,-77 136,-129 241,-161 68,-18 128,-21 180,-19 110,9 174,83 232,173 39,66 52,135 44,210 -10,191 -173,345 -371,345 -101,-1 -200,-40 -272,-108 z" class="fil53" />
     <ns0:path style="fill:#0f9602" ns1:connector-curvature="0" id="path4156" d="m 14558,6273 c -41,-38 -71,-84 -88,-136 -28,-87 -5,-212 37,-272 42,-67 129,-111 231,-140 69,-16 131,-19 179,-19 100,4 156,79 207,162 34,63 42,129 31,198 -13,171 -161,308 -342,308 -94,-2 -187,-37 -255,-101 z" class="fil54" />
     <ns0:path style="fill:#139902" ns1:connector-curvature="0" id="path4158" d="m 14575,6275 c -38,-35 -67,-78 -82,-126 -27,-80 -4,-201 34,-251 37,-56 123,-94 220,-118 71,-14 135,-18 179,-20 89,-1 138,76 182,151 29,61 33,123 18,186 -16,151 -150,270 -313,270 -88,-1 -175,-34 -238,-92 z" class="fil55" />
     <ns0:path style="fill:#169c03" ns1:connector-curvature="0" id="path4160" d="m 14592,6276 c -36,-32 -62,-71 -77,-115 -24,-73 -2,-190 32,-230 32,-46 116,-76 210,-97 72,-12 139,-16 177,-20 80,-6 121,72 158,140 24,58 24,116 6,174 -20,130 -140,233 -284,233 -83,-1 -163,-31 -222,-85 z" class="fil56" />
     <ns0:path style="fill:#1a9f03" ns1:connector-curvature="0" id="path4162" d="m 14608,6278 c -32,-30 -57,-65 -70,-105 -23,-67 0,-179 29,-208 27,-36 109,-60 200,-76 73,-10 142,-14 176,-21 69,-10 104,69 133,130 20,55 15,109 -7,161 -23,110 -129,195 -255,195 -76,0 -151,-28 -206,-76 z" class="fil57" />
     <ns0:path style="fill:#1da204" ns1:connector-curvature="0" id="path4164" d="m 14625,6279 c -30,-26 -52,-58 -65,-94 -21,-60 2,-168 27,-187 22,-26 102,-42 190,-55 73,-7 145,-12 174,-21 60,-15 87,65 109,119 15,52 6,103 -20,149 -26,89 -118,158 -226,158 -70,-1 -139,-25 -189,-69 z" class="fil58" />
     <ns0:path style="fill:#21a504" ns1:connector-curvature="0" id="path4166" d="m 14642,6280 c -27,-23 -48,-51 -59,-83 -19,-53 3,-157 25,-166 16,-15 95,-25 179,-34 74,-5 149,-10 173,-21 50,-20 69,61 84,108 10,49 -4,96 -32,137 -30,69 -107,121 -198,121 -64,-1 -126,-23 -172,-62 z" class="fil59" />
     <ns0:path style="fill:#24a805" ns1:connector-curvature="0" id="path4168" d="m 14659,6282 c -25,-20 -44,-45 -54,-73 -17,-46 6,-146 23,-145 11,-5 88,-7 168,-12 76,-3 153,-9 173,-22 39,-25 51,58 59,97 5,47 -13,90 -45,125 -33,49 -96,83 -169,83 -57,0 -114,-19 -155,-53 z" class="fil60" />
    </ns0:g>
    <ns0:path style="fill:#28ab05" ns1:connector-curvature="0" id="path4170" d="m 14676,6283 c -23,-17 -39,-38 -48,-62 -16,-39 7,-135 20,-124 12,11 299,18 329,-13 30,-30 34,54 35,86 0,88 -88,159 -197,159 -52,0 -102,-17 -139,-46 z" class="fil61" />
   </ns0:g>
   <ns0:path style="fill:#28ab05" ns1:connector-curvature="0" id="path4172" d="m 14527,5959 c -193,104 -130,-444 286,-443 452,2 474,519 305,443 -126,-58 -458,-73 -591,0 z" class="fil61" />
   <ns0:path style="fill:#28ab05" ns1:connector-curvature="0" id="path4174" d="m 14813,6270 c -179,-3 -343,-104 -414,-269 -17,-39 -23,-77 -25,-118 -25,160 21,299 146,405 84,71 183,106 293,107 250,0 453,-203 453,-453 0,-22 -1,-41 -4,-63 -34,227 -220,388 -449,391 z" class="fil61" />
   <ns0:g id="g4176">
    <ns0:g id="g4178">
     <ns0:path style="fill:none;stroke:#018a00;stroke-width:38.61999893" ns1:connector-curvature="0" id="path4180" d="m 14816,5683 c 153,0 277,123 277,276 0,153 -124,276 -277,276 -152,0 -276,-123 -276,-276 0,-153 124,-276 276,-276 z m 0,87 c 34,0 62,27 62,61 0,34 -28,61 -62,61 -34,0 -61,-27 -61,-61 0,-34 27,-61 61,-61 z m -27,150 54,0 c 13,0 23,10 23,23 l 0,182 c 0,12 -10,23 -23,23 l -54,0 c -12,0 -23,-11 -23,-23 l 0,-182 c 0,-13 11,-23 23,-23 z m 27,-171 c 117,0 211,94 211,210 0,116 -94,210 -211,210 -116,0 -210,-94 -210,-210 0,-116 94,-210 210,-210 z" class="fil2 str65" />
     <ns0:path style="fill:#018a00" ns1:connector-curvature="0" d="m 14816,5683 c 153,0 277,123 277,276 0,153 -124,276 -277,276 -152,0 -276,-123 -276,-276 0,-153 124,-276 276,-276 z m 0,87 c 34,0 62,27 62,61 0,34 -28,61 -62,61 -34,0 -61,-27 -61,-61 0,-34 27,-61 61,-61 z m -27,150 54,0 c 13,0 23,10 23,23 l 0,182 c 0,12 -10,23 -23,23 l -54,0 c -12,0 -23,-11 -23,-23 l 0,-182 c 0,-13 11,-23 23,-23 z m 27,-171 c 117,0 211,94 211,210 0,116 -94,210 -211,210 -116,0 -210,-94 -210,-210 0,-116 94,-210 210,-210 z" class="fil50" id="path4182" />
    </ns0:g>
    <ns0:g id="g4184">
     <ns0:g id="g4186">
      <ns0:path style="fill:none;stroke:#048e00;stroke-width:38.61999893" ns1:connector-curvature="0" id="path4188" d="m 14816,5649 c 153,0 277,123 277,276 0,153 -124,276 -277,276 -152,0 -276,-123 -276,-276 0,-153 124,-276 276,-276 z m 0,87 c 34,0 62,27 62,61 0,34 -28,61 -62,61 -34,0 -61,-27 -61,-61 0,-34 27,-61 61,-61 z m -27,150 54,0 c 13,0 23,10 23,23 l 0,182 c 0,12 -10,23 -23,23 l -54,0 c -12,0 -23,-11 -23,-23 l 0,-182 c 0,-13 11,-23 23,-23 z m 27,-171 c 117,0 211,94 211,210 0,116 -94,210 -211,210 -116,0 -210,-94 -210,-210 0,-116 94,-210 210,-210 z" class="fil2 str66" />
      <ns0:path style="fill:#e6e6e6" ns1:connector-curvature="0" d="m 14816,5649 c 153,0 277,123 277,276 0,153 -124,276 -277,276 -152,0 -276,-123 -276,-276 0,-153 124,-276 276,-276 z m 0,87 c 34,0 62,27 62,61 0,34 -28,61 -62,61 -34,0 -61,-27 -61,-61 0,-34 27,-61 61,-61 z m -27,150 54,0 c 13,0 23,10 23,23 l 0,182 c 0,12 -10,23 -23,23 l -54,0 c -12,0 -23,-11 -23,-23 l 0,-182 c 0,-13 11,-23 23,-23 z m 27,-171 c 117,0 211,94 211,210 0,116 -94,210 -211,210 -116,0 -210,-94 -210,-210 0,-116 94,-210 210,-210 z" class="fil17" id="path4190" />
     </ns0:g>
     <ns0:path style="fill:#ffffff" ns1:connector-curvature="0" id="path4192" d="m 14816,6201 c -152,0 -276,-123 -276,-276 0,-153 124,-276 276,-276 l 0,66 c -116,0 -210,94 -210,210 0,116 94,210 210,210 l 0,66 z m 0,-465 0,122 c -33,0 -61,-27 -61,-61 0,-34 28,-61 61,-61 z m 0,150 0,228 -27,0 c -12,0 -23,-11 -23,-23 l 0,-182 c 0,-13 11,-23 23,-23 l 27,0 z" class="fil3" />
    </ns0:g>
   </ns0:g>
   <ns0:path style="fill:#ffffff;fill-opacity:0.5019609" ns1:connector-curvature="0" id="path4194" d="m 14398,6360 c -115,-112 -173,-257 -163,-418 14,-204 122,-381 294,-490 42,-27 88,-49 136,-68 84,-32 150,-34 237,-22 179,29 290,120 392,263 194,272 107,643 -174,816 -93,58 -199,88 -308,88 -153,-2 -304,-62 -414,-169 z m 385,-825 c 75,82 48,229 -61,328 -108,100 -257,114 -332,33 -52,-57 -66,-265 -86,46 -9,142 42,270 144,369 97,94 229,147 364,149 87,0 172,-22 248,-64 -21,0 -40,-8 -54,-23 -33,-37 -21,-102 28,-147 48,-45 115,-51 148,-15 18,20 23,48 16,76 153,-170 180,-427 40,-624 -90,-127 -188,-206 -346,-233 -76,-10 -135,-8 -209,20 -29,11 -58,24 -85,39 72,-16 141,-1 185,46 z" class="fil18" />
   <ns0:path style="fill:#ffffff;fill-opacity:0.5019609" ns1:connector-curvature="0" id="path4196" d="m 14398,6361 c -116,-112 -174,-258 -164,-419 13,-205 122,-382 294,-491 43,-27 88,-49 137,-68 84,-32 150,-34 237,-22 180,29 291,120 393,264 194,272 107,643 -174,817 -93,58 -200,88 -309,88 -154,-2 -304,-62 -414,-169 z m 141,-142 c -76,-74 -115,-170 -108,-277 9,-135 81,-253 195,-325 28,-18 58,-33 90,-45 55,-21 100,-23 157,-15 119,20 193,80 260,175 129,180 71,426 -115,541 -62,39 -132,58 -205,58 -101,-1 -201,-41 -274,-112 z" class="fil18" />
   <ns0:path style="fill:#ffffff" ns1:connector-curvature="0" id="path4198" d="m 14788,5459 c 28,49 -8,123 -81,165 -72,42 -154,37 -183,-12 -28,-49 8,-123 80,-165 73,-43 155,-37 184,12 z" class="fil3" />
   <ns0:path style="fill:#ffffff" ns1:connector-curvature="0" id="path4200" d="m 14498,5625 c 22,25 11,73 -26,107 -38,33 -86,41 -109,15 -23,-25 -11,-72 26,-106 37,-34 86,-41 109,-16 z" class="fil3" />
   <ns0:path style="fill:#ffffff" ns1:connector-curvature="0" id="path4202" d="m 15060,6357 c 15,23 1,59 -33,82 -33,23 -73,23 -88,1 -15,-23 -1,-59 33,-82 33,-23 73,-23 88,-1 z" class="fil3" />
  </ns0:g>
</svg>
