<?xml version="1.0" encoding="UTF-8"?>
<svg xmlns="http://www.w3.org/2000/svg" 
     viewBox="20226.6 15095.2 1145.9 1262.5" 
     width="1145.9" height="1262.5"
     style="shape-rendering:geometricPrecision; image-rendering:optimizeQuality; fill-rule:evenodd; clip-rule:evenodd">
<ns0:defs xmlns:ns0="http://www.w3.org/2000/svg" id="defs4">
  <ns0:style type="text/css" id="style6">
   
    .str45 {stroke:#018A00;stroke-width:33.87}
    .str122 {stroke:#6B6B6B;stroke-width:33.87}
    .str0 {stroke:#C60A09;stroke-width:33.87}
    .str90 {stroke:#FFA502;stroke-width:33.87}
    .str87 {stroke:#018A00;stroke-width:22.02}
    .str151 {stroke:#6B6B6B;stroke-width:22.02}
    .str42 {stroke:#C60A09;stroke-width:22.02}
    .str119 {stroke:#FFA502;stroke-width:22.02}
    .str57 {stroke:#048E00;stroke-width:33.33}
    .str129 {stroke:#6B6B6B;stroke-width:33.33}
    .str12 {stroke:#C80D00;stroke-width:33.33}
    .str97 {stroke:#FFA502;stroke-width:33.33}
    .str77 {stroke:#018A00;stroke-width:34.2}
    .str78 {stroke:#048E00;stroke-width:34.2}
    .str144 {stroke:#6B6B6B;stroke-width:34.2}
    .str32 {stroke:#C60A09;stroke-width:34.2}
    .str33 {stroke:#C80D00;stroke-width:34.2}
    .str112 {stroke:#FFA502;stroke-width:34.2}
    .str79 {stroke:#018A00;stroke-width:35.37}
    .str80 {stroke:#048E00;stroke-width:35.37}
    .str145 {stroke:#6B6B6B;stroke-width:35.37}
    .str34 {stroke:#C60A09;stroke-width:35.37}
    .str35 {stroke:#C80D00;stroke-width:35.37}
    .str113 {stroke:#FFA502;stroke-width:35.37}
    .str59 {stroke:#018A00;stroke-width:35.47}
    .str60 {stroke:#048E00;stroke-width:35.47}
    .str131 {stroke:#6B6B6B;stroke-width:35.47}
    .str14 {stroke:#C60A09;stroke-width:35.47}
    .str15 {stroke:#C80D00;stroke-width:35.47}
    .str99 {stroke:#FFA502;stroke-width:35.47}
    .str86 {stroke:#048E00;stroke-width:35.54}
    .str150 {stroke:#6B6B6B;stroke-width:35.54}
    .str41 {stroke:#C80D00;stroke-width:35.54}
    .str118 {stroke:#FFA502;stroke-width:35.54}
    .str70 {stroke:#018A00;stroke-width:35.64}
    .str71 {stroke:#048E00;stroke-width:35.64}
    .str139 {stroke:#6B6B6B;stroke-width:35.64}
    .str25 {stroke:#C60A09;stroke-width:35.64}
    .str26 {stroke:#C80D00;stroke-width:35.64}
    .str107 {stroke:#FFA502;stroke-width:35.64}
    .str72 {stroke:#018A00;stroke-width:35.96}
    .str73 {stroke:#048E00;stroke-width:35.96}
    .str140 {stroke:#6B6B6B;stroke-width:35.96}
    .str27 {stroke:#C60A09;stroke-width:35.96}
    .str28 {stroke:#C80D00;stroke-width:35.96}
    .str108 {stroke:#FFA502;stroke-width:35.96}
    .str81 {stroke:#048E00;stroke-width:36.26}
    .str146 {stroke:#6B6B6B;stroke-width:36.26}
    .str36 {stroke:#C80D00;stroke-width:36.26}
    .str114 {stroke:#FFA502;stroke-width:36.26}
    .str50 {stroke:#018A00;stroke-width:36.34}
    .str51 {stroke:#048E00;stroke-width:36.34}
    .str125 {stroke:#6B6B6B;stroke-width:36.34}
    .str5 {stroke:#C60A09;stroke-width:36.34}
    .str6 {stroke:#C80D00;stroke-width:36.34}
    .str93 {stroke:#FFA502;stroke-width:36.34}
    .str76 {stroke:#048E00;stroke-width:36.42}
    .str143 {stroke:#6B6B6B;stroke-width:36.42}
    .str31 {stroke:#C80D00;stroke-width:36.42}
    .str111 {stroke:#FFA502;stroke-width:36.42}
    .str63 {stroke:#018A00;stroke-width:36.5}
    .str64 {stroke:#048E00;stroke-width:36.5}
    .str134 {stroke:#6B6B6B;stroke-width:36.5}
    .str18 {stroke:#C60A09;stroke-width:36.5}
    .str19 {stroke:#C80D00;stroke-width:36.5}
    .str102 {stroke:#FFA502;stroke-width:36.5}
    .str46 {stroke:#018A00;stroke-width:36.57}
    .str47 {stroke:#048E00;stroke-width:36.57}
    .str123 {stroke:#6B6B6B;stroke-width:36.57}
    .str1 {stroke:#C60A09;stroke-width:36.57}
    .str2 {stroke:#C80D00;stroke-width:36.57}
    .str91 {stroke:#FFA502;stroke-width:36.57}
    .str154 {stroke:#666666;stroke-width:36.88}
    .str61 {stroke:#048E00;stroke-width:37.27}
    .str132 {stroke:#6B6B6B;stroke-width:37.27}
    .str16 {stroke:#C80D00;stroke-width:37.27}
    .str100 {stroke:#FFA502;stroke-width:37.27}
    .str89 {stroke:#018A00;stroke-width:37.58}
    .str44 {stroke:#324984;stroke-width:37.58}
    .str153 {stroke:#6B6B6B;stroke-width:37.58}
    .str121 {stroke:#FFA502;stroke-width:37.58}
    .str48 {stroke:#018A00;stroke-width:38.14;stroke-linecap:round;stroke-linejoin:round}
    .str49 {stroke:#048E00;stroke-width:38.14;stroke-linecap:round;stroke-linejoin:round}
    .str124 {stroke:#6B6B6B;stroke-width:38.14;stroke-linecap:round;stroke-linejoin:round}
    .str3 {stroke:#C60A09;stroke-width:38.14;stroke-linecap:round;stroke-linejoin:round}
    .str4 {stroke:#C80D00;stroke-width:38.14;stroke-linecap:round;stroke-linejoin:round}
    .str92 {stroke:#FFA502;stroke-width:38.14;stroke-linecap:round;stroke-linejoin:round}
    .str84 {stroke:#048E00;stroke-width:38.23}
    .str148 {stroke:#6B6B6B;stroke-width:38.23}
    .str39 {stroke:#C80D00;stroke-width:38.23}
    .str116 {stroke:#FFA502;stroke-width:38.23}
    .str68 {stroke:#048E00;stroke-width:38.24}
    .str137 {stroke:#6B6B6B;stroke-width:38.24}
    .str23 {stroke:#C80D00;stroke-width:38.24}
    .str105 {stroke:#FFA502;stroke-width:38.24}
    .str69 {stroke:#048E00;stroke-width:38.42;stroke-linecap:round;stroke-linejoin:round}
    .str138 {stroke:#6B6B6B;stroke-width:38.42;stroke-linecap:round;stroke-linejoin:round}
    .str24 {stroke:#C80D00;stroke-width:38.42;stroke-linecap:round;stroke-linejoin:round}
    .str106 {stroke:#FFA502;stroke-width:38.42;stroke-linecap:round;stroke-linejoin:round}
    .str43 {stroke:#00B0DC;stroke-width:38.55}
    .str88 {stroke:#018A00;stroke-width:38.55}
    .str152 {stroke:#6B6B6B;stroke-width:38.55}
    .str120 {stroke:#FFA502;stroke-width:38.55}
    .str65 {stroke:#018A00;stroke-width:38.62}
    .str66 {stroke:#048E00;stroke-width:38.62}
    .str135 {stroke:#6B6B6B;stroke-width:38.62}
    .str20 {stroke:#C60A09;stroke-width:38.62}
    .str21 {stroke:#C80D00;stroke-width:38.62}
    .str103 {stroke:#FFA502;stroke-width:38.62}
    .str74 {stroke:#048E00;stroke-width:38.66}
    .str141 {stroke:#6B6B6B;stroke-width:38.66}
    .str29 {stroke:#C80D00;stroke-width:38.66}
    .str109 {stroke:#FFA502;stroke-width:38.66}
    .str75 {stroke:#048E00;stroke-width:38.88}
    .str142 {stroke:#6B6B6B;stroke-width:38.88}
    .str30 {stroke:#C80D00;stroke-width:38.88}
    .str110 {stroke:#FFA502;stroke-width:38.88}
    .str52 {stroke:#018A00;stroke-width:39}
    .str53 {stroke:#048E00;stroke-width:39}
    .str126 {stroke:#6B6B6B;stroke-width:39}
    .str7 {stroke:#C60A09;stroke-width:39}
    .str8 {stroke:#C80D00;stroke-width:39}
    .str94 {stroke:#FFA502;stroke-width:39}
    .str62 {stroke:#048E00;stroke-width:39.14}
    .str133 {stroke:#6B6B6B;stroke-width:39.14}
    .str17 {stroke:#C80D00;stroke-width:39.14}
    .str101 {stroke:#FFA502;stroke-width:39.14}
    .str82 {stroke:#018A00;stroke-width:39.18}
    .str83 {stroke:#048E00;stroke-width:39.18}
    .str147 {stroke:#6B6B6B;stroke-width:39.18}
    .str37 {stroke:#C60A09;stroke-width:39.18}
    .str38 {stroke:#C80D00;stroke-width:39.18}
    .str115 {stroke:#FFA502;stroke-width:39.18}
    .str85 {stroke:#048E00;stroke-width:39.62}
    .str149 {stroke:#6B6B6B;stroke-width:39.62}
    .str40 {stroke:#C80D00;stroke-width:39.62}
    .str117 {stroke:#FFA502;stroke-width:39.62}
    .str58 {stroke:#048E00;stroke-width:39.86}
    .str130 {stroke:#6B6B6B;stroke-width:39.86}
    .str13 {stroke:#C80D00;stroke-width:39.86}
    .str98 {stroke:#FFA502;stroke-width:39.86}
    .str55 {stroke:#018A00;stroke-width:39.96}
    .str56 {stroke:#048E00;stroke-width:39.96}
    .str128 {stroke:#6B6B6B;stroke-width:39.96}
    .str10 {stroke:#C60A09;stroke-width:39.96}
    .str11 {stroke:#C80D00;stroke-width:39.96}
    .str96 {stroke:#FFA502;stroke-width:39.96}
    .str54 {stroke:#048E00;stroke-width:40.62}
    .str127 {stroke:#6B6B6B;stroke-width:40.62}
    .str9 {stroke:#C80D00;stroke-width:40.62}
    .str95 {stroke:#FFA502;stroke-width:40.62}
    .str67 {stroke:#048E00;stroke-width:41.6}
    .str136 {stroke:#6B6B6B;stroke-width:41.6}
    .str22 {stroke:#C80D00;stroke-width:41.6}
    .str104 {stroke:#FFA502;stroke-width:41.6}
    .str156 {stroke:#119702;stroke-width:84.67;stroke-linecap:round;stroke-linejoin:round}
    .str158 {stroke:#747474;stroke-width:84.67;stroke-linecap:round;stroke-linejoin:round}
    .str155 {stroke:#CA1416;stroke-width:84.67;stroke-linecap:round;stroke-linejoin:round}
    .str157 {stroke:#FFB501;stroke-width:84.67;stroke-linecap:round;stroke-linejoin:round}
    .fil2 {fill:none}
    .fil21 {fill:none;fill-rule:nonzero}
    .fil36 {fill:#00B0DC}
    .fil24 {fill:#00CCFF}
    .fil50 {fill:#018A00}
    .fil64 {fill:#048E00}
    .fil51 {fill:#058D00}
    .fil52 {fill:#089001}
    .fil25 {fill:#0ACEFF}
    .fil53 {fill:#0C9301}
    .fil98 {fill:#0F9501}
    .fil54 {fill:#0F9602}
    .fil99 {fill:#119702}
    .fil55 {fill:#139902}
    .fil100 {fill:#149A02}
    .fil26 {fill:#15CFFE}
    .fil101 {fill:#169C02}
    .fil56 {fill:#169C03}
    .fil102 {fill:#199E03}
    .fil57 {fill:#1A9F03}
    .fil103 {fill:#1BA003}
    .fil58 {fill:#1DA204}
    .fil104 {fill:#1EA204}
    .fil27 {fill:#1FD1FE}
    .fil105 {fill:#20A404}
    .fil59 {fill:#21A504}
    .fil106 {fill:#23A704}
    .fil60 {fill:#24A805}
    .fil107 {fill:#25A905}
    .fil61 {fill:#28AB05}
    .fil28 {fill:#2AD3FD}
    .fil49 {fill:#324984}
    .fil29 {fill:#34D5FD}
    .fil1 {fill:#379F96}
    .fil37 {fill:#3B579D}
    .fil38 {fill:#3E5AA0}
    .fil0 {fill:#3FB8AF}
    .fil30 {fill:#3FD6FC}
    .fil39 {fill:#405CA3}
    .fil40 {fill:#435FA7}
    .fil41 {fill:#4662AA}
    .fil42 {fill:#4865AD}
    .fil31 {fill:#49D8FC}
    .fil43 {fill:#4B67B0}
    .fil44 {fill:#4D6AB3}
    .fil45 {fill:#506DB6}
    .fil46 {fill:#5370BA}
    .fil32 {fill:#54DAFB}
    .fil47 {fill:#5572BD}
    .fil48 {fill:#5875C0}
    .fil33 {fill:#5EDCFB}
    .fil91 {fill:#666666}
    .fil92 {fill:#686868}
    .fil34 {fill:#69DDFA}
    .fil78 {fill:#6B6B6B}
    .fil79 {fill:#6D6D6D}
    .fil80 {fill:#6F6F6F}
    .fil81 {fill:#717171}
    .fil93 {fill:#727272}
    .fil82 {fill:#737373}
    .fil35 {fill:#73DFFA}
    .fil94 {fill:#747474}
    .fil83 {fill:#757575}
    .fil84 {fill:#767676}
    .fil95 {fill:#777777}
    .fil85 {fill:#787878}
    .fil96 {fill:#797979}
    .fil86 {fill:#7A7A7A}
    .fil97 {fill:#7B7B7B}
    .fil87 {fill:#7C7C7C}
    .fil116 {fill:#7D7D7D}
    .fil88 {fill:#7E7E7E}
    .fil117 {fill:#7F7F7F}
    .fil89 {fill:gray}
    .fil4 {fill:#C60A09}
    .fil20 {fill:#C80D00}
    .fil5 {fill:#C80F0F}
    .fil6 {fill:#CA1416}
    .fil7 {fill:#CC191C}
    .fil8 {fill:#CE1E23}
    .fil9 {fill:#D02329}
    .fil10 {fill:#D12730}
    .fil11 {fill:#D32C36}
    .fil12 {fill:#D5313D}
    .fil13 {fill:#D73643}
    .fil14 {fill:#D93B4A}
    .fil15 {fill:#DB4050}
    .fil17 {fill:#E6E6E6}
    .fil65 {fill:#FFA502}
    .fil66 {fill:#FFA902}
    .fil67 {fill:#FFAC02}
    .fil68 {fill:#FFB001}
    .fil69 {fill:#FFB301}
    .fil108 {fill:#FFB501}
    .fil70 {fill:#FFB701}
    .fil109 {fill:#FFB801}
    .fil71 {fill:#FFBA01}
    .fil110 {fill:#FFBD01}
    .fil72 {fill:#FFBE01}
    .fil111 {fill:#FFBF00}
    .fil73 {fill:#FFC101}
    .fil112 {fill:#FFC200}
    .fil113 {fill:#FFC400}
    .fil74 {fill:#FFC500}
    .fil114 {fill:#FFC700}
    .fil75 {fill:#FFC800}
    .fil115 {fill:#FFC900}
    .fil76 {fill:#FFCC00}
    .fil3 {fill:white}
    .fil63 {fill:#018A00;fill-rule:nonzero}
    .fil62 {fill:#048E00;fill-rule:nonzero}
    .fil90 {fill:#6B6B6B;fill-rule:nonzero}
    .fil19 {fill:#C60A09;fill-rule:nonzero}
    .fil16 {fill:#C80D00;fill-rule:nonzero}
    .fil23 {fill:#E6E6E6;fill-rule:nonzero}
    .fil77 {fill:#FFA502;fill-rule:nonzero}
    .fil22 {fill:white;fill-rule:nonzero}
    .fil18 {fill:white;fill-opacity:0.501961}
   
  </ns0:style>
   <ns0:clipPath id="id0">
    <ns0:path d="M313 747l24774 0 0 20549 -24774 0 0 -20549z" id="path9" />
   </ns0:clipPath>
 
  
  
  
  
  
  
  
  
  
  
  
  
  
  
  
  
  
  
  
  
  
  
  
  
  
  
  
  
  
  
  
  
  
  
  
  
  
  
  
  
  
  
  
  
  
  
  
  
  
  
  
  
  
  
  
  
  
  
  
  
  
  
  
  
  
  
  
  
  
  
  
  
  
  
  
  
  
  
  
  
  
  
  
  
  
  
  
  
  
  
  
  
  
  
  
  
  
  
  
  
  
  
  
  
  
  
  
  
  
  
  
  
  
  
  
  
  
  
  
  
  
  
  
  
  
  
  
  
  
  
  
  
  
  
  
  
  
  
  
  
  
  
  
  
  
  
  
  
  
  
  
  
  
  
  
  
  
  
  
  
  
  
  
  
  
  
  
  
  
  
  
  
  
  
  
  
  
  
  
  
  
 
   
   
   
   
   
  </ns0:defs>
 
<ns0:style xmlns:ns0="http://www.w3.org/2000/svg" type="text/css" id="style6">
   
    .str45 {stroke:#018A00;stroke-width:33.87}
    .str122 {stroke:#6B6B6B;stroke-width:33.87}
    .str0 {stroke:#C60A09;stroke-width:33.87}
    .str90 {stroke:#FFA502;stroke-width:33.87}
    .str87 {stroke:#018A00;stroke-width:22.02}
    .str151 {stroke:#6B6B6B;stroke-width:22.02}
    .str42 {stroke:#C60A09;stroke-width:22.02}
    .str119 {stroke:#FFA502;stroke-width:22.02}
    .str57 {stroke:#048E00;stroke-width:33.33}
    .str129 {stroke:#6B6B6B;stroke-width:33.33}
    .str12 {stroke:#C80D00;stroke-width:33.33}
    .str97 {stroke:#FFA502;stroke-width:33.33}
    .str77 {stroke:#018A00;stroke-width:34.2}
    .str78 {stroke:#048E00;stroke-width:34.2}
    .str144 {stroke:#6B6B6B;stroke-width:34.2}
    .str32 {stroke:#C60A09;stroke-width:34.2}
    .str33 {stroke:#C80D00;stroke-width:34.2}
    .str112 {stroke:#FFA502;stroke-width:34.2}
    .str79 {stroke:#018A00;stroke-width:35.37}
    .str80 {stroke:#048E00;stroke-width:35.37}
    .str145 {stroke:#6B6B6B;stroke-width:35.37}
    .str34 {stroke:#C60A09;stroke-width:35.37}
    .str35 {stroke:#C80D00;stroke-width:35.37}
    .str113 {stroke:#FFA502;stroke-width:35.37}
    .str59 {stroke:#018A00;stroke-width:35.47}
    .str60 {stroke:#048E00;stroke-width:35.47}
    .str131 {stroke:#6B6B6B;stroke-width:35.47}
    .str14 {stroke:#C60A09;stroke-width:35.47}
    .str15 {stroke:#C80D00;stroke-width:35.47}
    .str99 {stroke:#FFA502;stroke-width:35.47}
    .str86 {stroke:#048E00;stroke-width:35.54}
    .str150 {stroke:#6B6B6B;stroke-width:35.54}
    .str41 {stroke:#C80D00;stroke-width:35.54}
    .str118 {stroke:#FFA502;stroke-width:35.54}
    .str70 {stroke:#018A00;stroke-width:35.64}
    .str71 {stroke:#048E00;stroke-width:35.64}
    .str139 {stroke:#6B6B6B;stroke-width:35.64}
    .str25 {stroke:#C60A09;stroke-width:35.64}
    .str26 {stroke:#C80D00;stroke-width:35.64}
    .str107 {stroke:#FFA502;stroke-width:35.64}
    .str72 {stroke:#018A00;stroke-width:35.96}
    .str73 {stroke:#048E00;stroke-width:35.96}
    .str140 {stroke:#6B6B6B;stroke-width:35.96}
    .str27 {stroke:#C60A09;stroke-width:35.96}
    .str28 {stroke:#C80D00;stroke-width:35.96}
    .str108 {stroke:#FFA502;stroke-width:35.96}
    .str81 {stroke:#048E00;stroke-width:36.26}
    .str146 {stroke:#6B6B6B;stroke-width:36.26}
    .str36 {stroke:#C80D00;stroke-width:36.26}
    .str114 {stroke:#FFA502;stroke-width:36.26}
    .str50 {stroke:#018A00;stroke-width:36.34}
    .str51 {stroke:#048E00;stroke-width:36.34}
    .str125 {stroke:#6B6B6B;stroke-width:36.34}
    .str5 {stroke:#C60A09;stroke-width:36.34}
    .str6 {stroke:#C80D00;stroke-width:36.34}
    .str93 {stroke:#FFA502;stroke-width:36.34}
    .str76 {stroke:#048E00;stroke-width:36.42}
    .str143 {stroke:#6B6B6B;stroke-width:36.42}
    .str31 {stroke:#C80D00;stroke-width:36.42}
    .str111 {stroke:#FFA502;stroke-width:36.42}
    .str63 {stroke:#018A00;stroke-width:36.5}
    .str64 {stroke:#048E00;stroke-width:36.5}
    .str134 {stroke:#6B6B6B;stroke-width:36.5}
    .str18 {stroke:#C60A09;stroke-width:36.5}
    .str19 {stroke:#C80D00;stroke-width:36.5}
    .str102 {stroke:#FFA502;stroke-width:36.5}
    .str46 {stroke:#018A00;stroke-width:36.57}
    .str47 {stroke:#048E00;stroke-width:36.57}
    .str123 {stroke:#6B6B6B;stroke-width:36.57}
    .str1 {stroke:#C60A09;stroke-width:36.57}
    .str2 {stroke:#C80D00;stroke-width:36.57}
    .str91 {stroke:#FFA502;stroke-width:36.57}
    .str154 {stroke:#666666;stroke-width:36.88}
    .str61 {stroke:#048E00;stroke-width:37.27}
    .str132 {stroke:#6B6B6B;stroke-width:37.27}
    .str16 {stroke:#C80D00;stroke-width:37.27}
    .str100 {stroke:#FFA502;stroke-width:37.27}
    .str89 {stroke:#018A00;stroke-width:37.58}
    .str44 {stroke:#324984;stroke-width:37.58}
    .str153 {stroke:#6B6B6B;stroke-width:37.58}
    .str121 {stroke:#FFA502;stroke-width:37.58}
    .str48 {stroke:#018A00;stroke-width:38.14;stroke-linecap:round;stroke-linejoin:round}
    .str49 {stroke:#048E00;stroke-width:38.14;stroke-linecap:round;stroke-linejoin:round}
    .str124 {stroke:#6B6B6B;stroke-width:38.14;stroke-linecap:round;stroke-linejoin:round}
    .str3 {stroke:#C60A09;stroke-width:38.14;stroke-linecap:round;stroke-linejoin:round}
    .str4 {stroke:#C80D00;stroke-width:38.14;stroke-linecap:round;stroke-linejoin:round}
    .str92 {stroke:#FFA502;stroke-width:38.14;stroke-linecap:round;stroke-linejoin:round}
    .str84 {stroke:#048E00;stroke-width:38.23}
    .str148 {stroke:#6B6B6B;stroke-width:38.23}
    .str39 {stroke:#C80D00;stroke-width:38.23}
    .str116 {stroke:#FFA502;stroke-width:38.23}
    .str68 {stroke:#048E00;stroke-width:38.24}
    .str137 {stroke:#6B6B6B;stroke-width:38.24}
    .str23 {stroke:#C80D00;stroke-width:38.24}
    .str105 {stroke:#FFA502;stroke-width:38.24}
    .str69 {stroke:#048E00;stroke-width:38.42;stroke-linecap:round;stroke-linejoin:round}
    .str138 {stroke:#6B6B6B;stroke-width:38.42;stroke-linecap:round;stroke-linejoin:round}
    .str24 {stroke:#C80D00;stroke-width:38.42;stroke-linecap:round;stroke-linejoin:round}
    .str106 {stroke:#FFA502;stroke-width:38.42;stroke-linecap:round;stroke-linejoin:round}
    .str43 {stroke:#00B0DC;stroke-width:38.55}
    .str88 {stroke:#018A00;stroke-width:38.55}
    .str152 {stroke:#6B6B6B;stroke-width:38.55}
    .str120 {stroke:#FFA502;stroke-width:38.55}
    .str65 {stroke:#018A00;stroke-width:38.62}
    .str66 {stroke:#048E00;stroke-width:38.62}
    .str135 {stroke:#6B6B6B;stroke-width:38.62}
    .str20 {stroke:#C60A09;stroke-width:38.62}
    .str21 {stroke:#C80D00;stroke-width:38.62}
    .str103 {stroke:#FFA502;stroke-width:38.62}
    .str74 {stroke:#048E00;stroke-width:38.66}
    .str141 {stroke:#6B6B6B;stroke-width:38.66}
    .str29 {stroke:#C80D00;stroke-width:38.66}
    .str109 {stroke:#FFA502;stroke-width:38.66}
    .str75 {stroke:#048E00;stroke-width:38.88}
    .str142 {stroke:#6B6B6B;stroke-width:38.88}
    .str30 {stroke:#C80D00;stroke-width:38.88}
    .str110 {stroke:#FFA502;stroke-width:38.88}
    .str52 {stroke:#018A00;stroke-width:39}
    .str53 {stroke:#048E00;stroke-width:39}
    .str126 {stroke:#6B6B6B;stroke-width:39}
    .str7 {stroke:#C60A09;stroke-width:39}
    .str8 {stroke:#C80D00;stroke-width:39}
    .str94 {stroke:#FFA502;stroke-width:39}
    .str62 {stroke:#048E00;stroke-width:39.14}
    .str133 {stroke:#6B6B6B;stroke-width:39.14}
    .str17 {stroke:#C80D00;stroke-width:39.14}
    .str101 {stroke:#FFA502;stroke-width:39.14}
    .str82 {stroke:#018A00;stroke-width:39.18}
    .str83 {stroke:#048E00;stroke-width:39.18}
    .str147 {stroke:#6B6B6B;stroke-width:39.18}
    .str37 {stroke:#C60A09;stroke-width:39.18}
    .str38 {stroke:#C80D00;stroke-width:39.18}
    .str115 {stroke:#FFA502;stroke-width:39.18}
    .str85 {stroke:#048E00;stroke-width:39.62}
    .str149 {stroke:#6B6B6B;stroke-width:39.62}
    .str40 {stroke:#C80D00;stroke-width:39.62}
    .str117 {stroke:#FFA502;stroke-width:39.62}
    .str58 {stroke:#048E00;stroke-width:39.86}
    .str130 {stroke:#6B6B6B;stroke-width:39.86}
    .str13 {stroke:#C80D00;stroke-width:39.86}
    .str98 {stroke:#FFA502;stroke-width:39.86}
    .str55 {stroke:#018A00;stroke-width:39.96}
    .str56 {stroke:#048E00;stroke-width:39.96}
    .str128 {stroke:#6B6B6B;stroke-width:39.96}
    .str10 {stroke:#C60A09;stroke-width:39.96}
    .str11 {stroke:#C80D00;stroke-width:39.96}
    .str96 {stroke:#FFA502;stroke-width:39.96}
    .str54 {stroke:#048E00;stroke-width:40.62}
    .str127 {stroke:#6B6B6B;stroke-width:40.62}
    .str9 {stroke:#C80D00;stroke-width:40.62}
    .str95 {stroke:#FFA502;stroke-width:40.62}
    .str67 {stroke:#048E00;stroke-width:41.6}
    .str136 {stroke:#6B6B6B;stroke-width:41.6}
    .str22 {stroke:#C80D00;stroke-width:41.6}
    .str104 {stroke:#FFA502;stroke-width:41.6}
    .str156 {stroke:#119702;stroke-width:84.67;stroke-linecap:round;stroke-linejoin:round}
    .str158 {stroke:#747474;stroke-width:84.67;stroke-linecap:round;stroke-linejoin:round}
    .str155 {stroke:#CA1416;stroke-width:84.67;stroke-linecap:round;stroke-linejoin:round}
    .str157 {stroke:#FFB501;stroke-width:84.67;stroke-linecap:round;stroke-linejoin:round}
    .fil2 {fill:none}
    .fil21 {fill:none;fill-rule:nonzero}
    .fil36 {fill:#00B0DC}
    .fil24 {fill:#00CCFF}
    .fil50 {fill:#018A00}
    .fil64 {fill:#048E00}
    .fil51 {fill:#058D00}
    .fil52 {fill:#089001}
    .fil25 {fill:#0ACEFF}
    .fil53 {fill:#0C9301}
    .fil98 {fill:#0F9501}
    .fil54 {fill:#0F9602}
    .fil99 {fill:#119702}
    .fil55 {fill:#139902}
    .fil100 {fill:#149A02}
    .fil26 {fill:#15CFFE}
    .fil101 {fill:#169C02}
    .fil56 {fill:#169C03}
    .fil102 {fill:#199E03}
    .fil57 {fill:#1A9F03}
    .fil103 {fill:#1BA003}
    .fil58 {fill:#1DA204}
    .fil104 {fill:#1EA204}
    .fil27 {fill:#1FD1FE}
    .fil105 {fill:#20A404}
    .fil59 {fill:#21A504}
    .fil106 {fill:#23A704}
    .fil60 {fill:#24A805}
    .fil107 {fill:#25A905}
    .fil61 {fill:#28AB05}
    .fil28 {fill:#2AD3FD}
    .fil49 {fill:#324984}
    .fil29 {fill:#34D5FD}
    .fil1 {fill:#379F96}
    .fil37 {fill:#3B579D}
    .fil38 {fill:#3E5AA0}
    .fil0 {fill:#3FB8AF}
    .fil30 {fill:#3FD6FC}
    .fil39 {fill:#405CA3}
    .fil40 {fill:#435FA7}
    .fil41 {fill:#4662AA}
    .fil42 {fill:#4865AD}
    .fil31 {fill:#49D8FC}
    .fil43 {fill:#4B67B0}
    .fil44 {fill:#4D6AB3}
    .fil45 {fill:#506DB6}
    .fil46 {fill:#5370BA}
    .fil32 {fill:#54DAFB}
    .fil47 {fill:#5572BD}
    .fil48 {fill:#5875C0}
    .fil33 {fill:#5EDCFB}
    .fil91 {fill:#666666}
    .fil92 {fill:#686868}
    .fil34 {fill:#69DDFA}
    .fil78 {fill:#6B6B6B}
    .fil79 {fill:#6D6D6D}
    .fil80 {fill:#6F6F6F}
    .fil81 {fill:#717171}
    .fil93 {fill:#727272}
    .fil82 {fill:#737373}
    .fil35 {fill:#73DFFA}
    .fil94 {fill:#747474}
    .fil83 {fill:#757575}
    .fil84 {fill:#767676}
    .fil95 {fill:#777777}
    .fil85 {fill:#787878}
    .fil96 {fill:#797979}
    .fil86 {fill:#7A7A7A}
    .fil97 {fill:#7B7B7B}
    .fil87 {fill:#7C7C7C}
    .fil116 {fill:#7D7D7D}
    .fil88 {fill:#7E7E7E}
    .fil117 {fill:#7F7F7F}
    .fil89 {fill:gray}
    .fil4 {fill:#C60A09}
    .fil20 {fill:#C80D00}
    .fil5 {fill:#C80F0F}
    .fil6 {fill:#CA1416}
    .fil7 {fill:#CC191C}
    .fil8 {fill:#CE1E23}
    .fil9 {fill:#D02329}
    .fil10 {fill:#D12730}
    .fil11 {fill:#D32C36}
    .fil12 {fill:#D5313D}
    .fil13 {fill:#D73643}
    .fil14 {fill:#D93B4A}
    .fil15 {fill:#DB4050}
    .fil17 {fill:#E6E6E6}
    .fil65 {fill:#FFA502}
    .fil66 {fill:#FFA902}
    .fil67 {fill:#FFAC02}
    .fil68 {fill:#FFB001}
    .fil69 {fill:#FFB301}
    .fil108 {fill:#FFB501}
    .fil70 {fill:#FFB701}
    .fil109 {fill:#FFB801}
    .fil71 {fill:#FFBA01}
    .fil110 {fill:#FFBD01}
    .fil72 {fill:#FFBE01}
    .fil111 {fill:#FFBF00}
    .fil73 {fill:#FFC101}
    .fil112 {fill:#FFC200}
    .fil113 {fill:#FFC400}
    .fil74 {fill:#FFC500}
    .fil114 {fill:#FFC700}
    .fil75 {fill:#FFC800}
    .fil115 {fill:#FFC900}
    .fil76 {fill:#FFCC00}
    .fil3 {fill:white}
    .fil63 {fill:#018A00;fill-rule:nonzero}
    .fil62 {fill:#048E00;fill-rule:nonzero}
    .fil90 {fill:#6B6B6B;fill-rule:nonzero}
    .fil19 {fill:#C60A09;fill-rule:nonzero}
    .fil16 {fill:#C80D00;fill-rule:nonzero}
    .fil23 {fill:#E6E6E6;fill-rule:nonzero}
    .fil77 {fill:#FFA502;fill-rule:nonzero}
    .fil22 {fill:white;fill-rule:nonzero}
    .fil18 {fill:white;fill-opacity:0.501961}
   
  </ns0:style>
   
<ns0:g xmlns:ns0="http://www.w3.org/2000/svg" xmlns:ns1="http://www.inkscape.org/namespaces/inkscape" id="g5226">
   <ns0:path style="fill:#ffffff" ns1:connector-curvature="0" id="path5228" d="m 20432,16142 c -115,-112 -173,-258 -163,-419 13,-204 122,-382 294,-491 42,-27 88,-49 136,-68 84,-32 151,-34 237,-22 180,30 291,120 394,264 193,272 106,643 -175,818 -93,57 -199,87 -309,87 -153,-2 -304,-62 -414,-169 z m 16,-16 c -111,-108 -167,-248 -157,-403 13,-197 117,-367 283,-472 41,-26 85,-47 131,-65 81,-31 145,-33 228,-22 173,29 280,116 378,254 186,262 103,619 -167,786 -90,56 -192,85 -298,85 -147,-2 -292,-60 -398,-163 z" class="fil3" />
   <ns0:g id="g5230">
    <ns0:path style="fill:#018a00" ns1:connector-curvature="0" id="path5232" d="m 20525,16049 c -51,-50 -89,-111 -111,-180 -35,-113 -12,-254 47,-355 62,-108 157,-181 272,-225 65,-25 117,-27 184,-17 140,23 226,93 306,205 53,74 79,154 81,246 0,253 -205,457 -457,457 -119,-1 -236,-48 -322,-131 z" class="fil50" />
    <ns0:g id="g5234">
     <ns0:path style="fill:#058d00" ns1:connector-curvature="0" id="path5236" d="m 20542,16050 c -49,-47 -85,-104 -105,-168 -34,-107 -11,-244 44,-335 57,-98 150,-163 262,-204 66,-22 120,-25 183,-17 129,18 208,89 281,194 48,72 69,148 68,234 -3,232 -194,420 -428,420 -113,-2 -224,-46 -305,-124 z" class="fil51" />
     <ns0:path style="fill:#089001" ns1:connector-curvature="0" id="path5238" d="m 20559,16052 c -46,-44 -80,-98 -100,-158 -31,-100 -9,-233 42,-314 52,-87 143,-146 252,-182 67,-21 124,-23 181,-18 120,13 191,86 257,183 43,69 60,142 56,222 -7,212 -184,382 -400,382 -107,-1 -211,-42 -288,-115 z" class="fil52" />
     <ns0:path style="fill:#0c9301" ns1:connector-curvature="0" id="path5240" d="m 20576,16053 c -44,-41 -76,-91 -94,-147 -30,-93 -7,-222 39,-293 47,-77 136,-128 241,-161 69,-18 128,-21 181,-18 110,8 173,82 232,172 38,66 51,135 43,210 -10,192 -172,345 -370,345 -101,-1 -200,-40 -272,-108 z" class="fil53" />
     <ns0:path style="fill:#0f9602" ns1:connector-curvature="0" id="path5242" d="m 20592,16054 c -40,-38 -71,-84 -88,-136 -28,-87 -5,-211 37,-272 42,-66 130,-111 231,-139 69,-17 131,-20 179,-19 100,3 157,79 208,161 33,64 42,129 30,198 -13,171 -161,308 -341,308 -95,-1 -188,-37 -256,-101 z" class="fil54" />
     <ns0:path style="fill:#139902" ns1:connector-curvature="0" id="path5244" d="m 20609,16056 c -38,-35 -66,-78 -82,-126 -26,-80 -4,-200 35,-251 36,-56 122,-94 220,-118 70,-14 135,-18 178,-19 90,-2 139,75 183,150 29,61 33,123 18,186 -17,151 -151,270 -313,270 -89,-1 -175,-34 -239,-92 z" class="fil55" />
     <ns0:path style="fill:#169c03" ns1:connector-curvature="0" id="path5246" d="m 20626,16057 c -35,-32 -62,-71 -76,-115 -25,-73 -2,-190 32,-229 31,-46 115,-77 210,-98 71,-11 138,-15 177,-19 79,-6 121,71 158,140 24,57 23,115 5,173 -20,130 -140,233 -284,233 -82,-1 -163,-31 -222,-85 z" class="fil56" />
     <ns0:path style="fill:#1a9f03" ns1:connector-curvature="0" id="path5248" d="m 20643,16059 c -33,-29 -57,-65 -71,-105 -23,-66 0,-179 30,-208 26,-36 108,-60 199,-76 73,-10 142,-14 176,-20 70,-11 104,68 134,129 19,55 14,109 -8,161 -22,110 -128,196 -255,196 -76,-1 -151,-29 -205,-77 z" class="fil57" />
     <ns0:path style="fill:#1da204" ns1:connector-curvature="0" id="path5250" d="m 20660,16060 c -30,-26 -53,-58 -65,-94 -21,-60 1,-168 27,-187 21,-25 102,-42 189,-55 74,-7 146,-12 175,-20 59,-16 86,64 109,118 14,52 5,103 -20,149 -26,90 -118,158 -226,158 -70,0 -139,-25 -189,-69 z" class="fil58" />
     <ns0:path style="fill:#21a504" ns1:connector-curvature="0" id="path5252" d="m 20676,16062 c -27,-24 -48,-52 -59,-84 -19,-53 4,-157 25,-166 17,-15 95,-25 179,-33 75,-6 149,-11 173,-21 50,-21 69,61 85,107 9,50 -4,97 -33,137 -29,69 -107,121 -197,121 -64,-1 -127,-23 -173,-61 z" class="fil59" />
     <ns0:path style="fill:#24a805" ns1:connector-curvature="0" id="path5254" d="m 20693,16063 c -25,-20 -43,-45 -53,-73 -18,-46 5,-146 22,-145 12,-4 88,-7 169,-12 76,-3 152,-9 172,-21 40,-26 52,57 60,96 4,47 -13,90 -46,125 -32,49 -96,84 -168,84 -58,-1 -114,-20 -156,-54 z" class="fil60" />
    </ns0:g>
    <ns0:path style="fill:#28ab05" ns1:connector-curvature="0" id="path5256" d="m 20710,16065 c -22,-18 -39,-39 -48,-63 -15,-39 8,-135 20,-124 13,12 300,18 330,-12 29,-31 34,53 35,85 0,88 -89,159 -198,159 -51,0 -102,-16 -139,-45 z" class="fil61" />
   </ns0:g>
   <ns0:path style="fill:#28ab05" ns1:connector-curvature="0" id="path5258" d="m 20561,15740 c -193,104 -130,-444 286,-442 452,1 474,518 306,442 -127,-58 -459,-73 -592,0 z" class="fil61" />
   <ns0:path style="fill:#28ab05" ns1:connector-curvature="0" id="path5260" d="m 20847,16051 c -178,-3 -342,-104 -414,-269 -17,-38 -23,-76 -24,-118 -26,161 20,299 145,405 84,71 184,106 293,107 251,0 453,-202 453,-453 0,-22 -1,-41 -4,-63 -33,227 -220,388 -449,391 z" class="fil61" />
   <ns0:g id="g5262">
    <ns0:g id="g5264">
     <ns0:path style="fill:none;stroke:#018a00;stroke-width:22.02000046" ns1:connector-curvature="0" id="path5266" d="m 21035,15584 60,0 25,0 0,25 0,21 0,25 -25,0 -60,0 0,60 0,24 -25,0 -21,0 -24,0 0,-24 0,-60 -60,0 -25,0 0,-25 0,-21 0,-25 25,0 60,0 0,-59 0,-25 24,0 21,0 25,0 0,25 0,59 z m -237,162 c 7,8 17,16 23,20 l 0,0 c 19,14 32,27 40,43 8,15 11,33 11,54 0,29 -15,59 -43,79 -24,18 -57,29 -99,29 -40,0 -77,-8 -104,-24 -27,-15 -44,-38 -44,-67 0,-29 17,-57 44,-78 25,-17 57,-29 94,-30 -3,-7 -5,-14 -5,-22 0,-3 0,-7 1,-10 -30,-2 -55,-13 -73,-30 -21,-20 -33,-48 -33,-79 0,-30 16,-57 39,-77 24,-20 56,-33 89,-33 l 130,0 45,0 -36,26 -29,21 -4,3 -5,0 -2,0 c 1,2 3,4 4,6 9,16 13,36 13,55 0,16 -4,30 -11,43 -7,14 -18,26 -31,36 -9,8 -15,12 -17,17 l 0,0 c -2,2 -3,5 -3,9 0,2 3,5 6,9 z m -91,-67 c 11,11 23,19 36,19 2,0 3,0 5,0 l 0,0 c 9,-1 16,-6 21,-13 7,-9 10,-21 11,-34 0,-5 0,-10 -1,-15 -3,-19 -11,-36 -22,-48 -10,-12 -23,-19 -36,-20 -2,0 -3,0 -5,0 -9,2 -16,6 -21,14 -6,8 -10,19 -10,33 0,4 0,9 0,14 3,19 11,37 22,50 z m -30,226 c 13,10 31,17 53,17 29,0 49,-6 62,-15 13,-9 18,-23 18,-39 0,-2 0,-3 0,-5 l 0,0 c 0,-2 -1,-3 -1,-5 l 0,0 c -3,-13 -17,-23 -36,-36 l -9,-5 c -3,-2 -7,-2 -11,-3 -5,-1 -10,-1 -15,-1 l 0,0 -1,0 0,0 c -22,0 -42,6 -57,17 -14,10 -22,22 -22,36 l 0,0 0,0 c 0,15 7,29 19,39 z" class="fil21 str87" />
     <ns0:path style="fill:#018a00;fill-rule:nonzero" ns1:connector-curvature="0" d="m 21035,15584 60,0 25,0 0,25 0,21 0,25 -25,0 -60,0 0,60 0,24 -25,0 -21,0 -24,0 0,-24 0,-60 -60,0 -25,0 0,-25 0,-21 0,-25 25,0 60,0 0,-59 0,-25 24,0 21,0 25,0 0,25 0,59 z m -237,162 c 7,8 17,16 23,20 l 0,0 c 19,14 32,27 40,43 8,15 11,33 11,54 0,29 -15,59 -43,79 -24,18 -57,29 -99,29 -40,0 -77,-8 -104,-24 -27,-15 -44,-38 -44,-67 0,-29 17,-57 44,-78 25,-17 57,-29 94,-30 -3,-7 -5,-14 -5,-22 0,-3 0,-7 1,-10 -30,-2 -55,-13 -73,-30 -21,-20 -33,-48 -33,-79 0,-30 16,-57 39,-77 24,-20 56,-33 89,-33 l 130,0 45,0 -36,26 -29,21 -4,3 -5,0 -2,0 c 1,2 3,4 4,6 9,16 13,36 13,55 0,16 -4,30 -11,43 -7,14 -18,26 -31,36 -9,8 -15,12 -17,17 l 0,0 c -2,2 -3,5 -3,9 0,2 3,5 6,9 z m -91,-67 c 11,11 23,19 36,19 2,0 3,0 5,0 l 0,0 c 9,-1 16,-6 21,-13 7,-9 10,-21 11,-34 0,-5 0,-10 -1,-15 -3,-19 -11,-36 -22,-48 -10,-12 -23,-19 -36,-20 -2,0 -3,0 -5,0 -9,2 -16,6 -21,14 -6,8 -10,19 -10,33 0,4 0,9 0,14 3,19 11,37 22,50 z m -30,226 c 13,10 31,17 53,17 29,0 49,-6 62,-15 13,-9 18,-23 18,-39 0,-2 0,-3 0,-5 l 0,0 c 0,-2 -1,-3 -1,-5 l 0,0 c -3,-13 -17,-23 -36,-36 l -9,-5 c -3,-2 -7,-2 -11,-3 -5,-1 -10,-1 -15,-1 l 0,0 -1,0 0,0 c -22,0 -42,6 -57,17 -14,10 -22,22 -22,36 l 0,0 0,0 c 0,15 7,29 19,39 z" class="fil63" id="path5268" />
    </ns0:g>
    <ns0:g id="g5270">
     <ns0:g id="g5272">
      <ns0:path style="fill:none;stroke:#018a00;stroke-width:22.02000046" ns1:connector-curvature="0" id="path5274" d="m 21035,15560 60,0 25,0 0,25 0,21 0,24 -25,0 -60,0 0,60 0,25 -25,0 -21,0 -24,0 0,-25 0,-60 -60,0 -25,0 0,-24 0,-21 0,-25 25,0 60,0 0,-60 0,-25 24,0 21,0 25,0 0,25 0,60 z m -237,161 c 7,9 17,17 23,21 l 0,0 c 19,13 32,27 40,42 8,16 11,33 11,54 0,30 -15,59 -43,80 -24,17 -57,29 -99,29 -40,0 -77,-9 -104,-24 -27,-16 -44,-39 -44,-67 0,-30 17,-58 44,-78 25,-18 57,-30 94,-31 -3,-6 -5,-14 -5,-22 0,-3 0,-6 1,-9 -30,-2 -55,-14 -73,-31 -21,-20 -33,-48 -33,-78 0,-30 16,-58 39,-78 24,-20 56,-32 89,-32 l 130,0 45,0 -36,26 -29,21 -4,2 -5,0 -2,0 c 1,2 3,5 4,7 9,16 13,35 13,54 0,16 -4,31 -11,44 -7,14 -18,26 -31,36 -9,7 -15,12 -17,16 l 0,0 c -2,3 -3,6 -3,10 0,1 3,4 6,8 z m -91,-67 c 11,12 23,19 36,20 2,0 3,0 5,0 l 0,0 c 9,-2 16,-6 21,-14 7,-9 10,-20 11,-34 0,-4 0,-9 -1,-14 -3,-19 -11,-36 -22,-49 -10,-12 -23,-19 -36,-19 -2,0 -3,0 -5,0 -9,1 -16,6 -21,13 -6,8 -10,20 -10,33 0,5 0,10 0,14 3,20 11,37 22,50 z m -30,226 c 13,11 31,17 53,17 29,0 49,-5 62,-14 13,-10 18,-24 18,-39 0,-2 0,-4 0,-5 l 0,0 c 0,-2 -1,-4 -1,-5 l 0,0 c -3,-14 -17,-23 -36,-36 l -9,-6 c -3,-1 -7,-2 -11,-3 -5,0 -10,-1 -15,-1 l 0,0 -1,0 0,0 c -22,0 -42,7 -57,17 -14,10 -22,23 -22,36 l 0,0 0,1 c 0,15 7,28 19,38 z" class="fil21 str87" />
      <ns0:path style="fill:#e6e6e6;fill-rule:nonzero" ns1:connector-curvature="0" d="m 21035,15560 60,0 25,0 0,25 0,21 0,24 -25,0 -60,0 0,60 0,25 -25,0 -21,0 -24,0 0,-25 0,-60 -60,0 -25,0 0,-24 0,-21 0,-25 25,0 60,0 0,-60 0,-25 24,0 21,0 25,0 0,25 0,60 z m -237,161 c 7,9 17,17 23,21 l 0,0 c 19,13 32,27 40,42 8,16 11,33 11,54 0,30 -15,59 -43,80 -24,17 -57,29 -99,29 -40,0 -77,-9 -104,-24 -27,-16 -44,-39 -44,-67 0,-30 17,-58 44,-78 25,-18 57,-30 94,-31 -3,-6 -5,-14 -5,-22 0,-3 0,-6 1,-9 -30,-2 -55,-14 -73,-31 -21,-20 -33,-48 -33,-78 0,-30 16,-58 39,-78 24,-20 56,-32 89,-32 l 130,0 45,0 -36,26 -29,21 -4,2 -5,0 -2,0 c 1,2 3,5 4,7 9,16 13,35 13,54 0,16 -4,31 -11,44 -7,14 -18,26 -31,36 -9,7 -15,12 -17,16 l 0,0 c -2,3 -3,6 -3,10 0,1 3,4 6,8 z m -91,-67 c 11,12 23,19 36,20 2,0 3,0 5,0 l 0,0 c 9,-2 16,-6 21,-14 7,-9 10,-20 11,-34 0,-4 0,-9 -1,-14 -3,-19 -11,-36 -22,-49 -10,-12 -23,-19 -36,-19 -2,0 -3,0 -5,0 -9,1 -16,6 -21,13 -6,8 -10,20 -10,33 0,5 0,10 0,14 3,20 11,37 22,50 z m -30,226 c 13,11 31,17 53,17 29,0 49,-5 62,-14 13,-10 18,-24 18,-39 0,-2 0,-4 0,-5 l 0,0 c 0,-2 -1,-4 -1,-5 l 0,0 c -3,-14 -17,-23 -36,-36 l -9,-6 c -3,-1 -7,-2 -11,-3 -5,0 -10,-1 -15,-1 l 0,0 -1,0 0,0 c -22,0 -42,7 -57,17 -14,10 -22,23 -22,36 l 0,0 0,1 c 0,15 7,28 19,38 z" class="fil23" id="path5276" />
     </ns0:g>
     <ns0:path style="fill:#ffffff;fill-rule:nonzero" ns1:connector-curvature="0" id="path5278" d="m 21035,15560 60,0 25,0 0,25 0,21 0,24 -25,0 -60,0 0,60 0,25 -25,0 -21,0 -24,0 0,-25 0,-60 -60,0 -25,0 0,-24 0,-21 0,-25 25,0 60,0 0,-60 0,-25 24,0 21,0 25,0 0,25 0,60 z m -237,161 -83,0 c 0,-2 0,-4 1,-5 -30,-2 -55,-14 -73,-31 -21,-20 -33,-48 -33,-78 0,-30 16,-58 39,-78 24,-20 56,-32 89,-32 l 130,0 45,0 -36,26 -29,21 -4,2 -5,0 -2,0 c 1,2 3,5 4,7 9,16 13,35 13,54 0,16 -4,31 -11,44 -7,14 -18,26 -31,36 -9,7 -15,12 -17,16 l 0,0 c -2,3 -3,6 -3,10 0,1 3,4 6,8 z m -91,-67 c 11,12 23,19 36,20 2,0 3,0 5,0 l 0,0 c 9,-2 16,-6 21,-14 7,-9 10,-20 11,-34 0,-4 0,-9 -1,-14 -3,-19 -11,-36 -22,-49 -10,-12 -23,-19 -36,-19 -2,0 -3,0 -5,0 -9,1 -16,6 -21,13 -6,8 -10,20 -10,33 0,5 0,10 0,14 3,20 11,37 22,50 z" class="fil22" />
    </ns0:g>
   </ns0:g>
   <ns0:path style="fill:#ffffff;fill-opacity:0.5019609" ns1:connector-curvature="0" id="path5280" d="m 20433,16141 c -115,-111 -173,-257 -163,-418 13,-204 121,-381 293,-490 43,-27 88,-49 137,-68 83,-32 150,-34 236,-22 180,30 290,120 393,264 193,271 106,642 -174,816 -93,57 -200,87 -309,87 -153,-2 -303,-62 -413,-169 z m 385,-824 c 75,81 47,228 -61,327 -109,100 -257,115 -332,33 -52,-57 -67,-264 -86,46 -9,142 42,270 143,369 97,94 230,147 365,149 87,0 171,-22 247,-63 -21,-1 -40,-9 -53,-24 -34,-36 -22,-102 27,-147 49,-44 115,-51 149,-14 18,19 22,47 16,75 152,-170 180,-427 39,-624 -90,-126 -188,-206 -346,-232 -76,-11 -135,-9 -208,19 -30,12 -58,25 -85,39 72,-16 141,-1 185,47 z" class="fil18" />
   <ns0:path style="fill:#ffffff;fill-opacity:0.5019609" ns1:connector-curvature="0" id="path5282" d="m 20432,16142 c -115,-112 -173,-258 -163,-419 13,-204 122,-382 294,-491 42,-27 88,-49 136,-68 84,-32 151,-34 237,-22 180,30 291,120 394,264 193,272 106,643 -175,818 -93,57 -199,87 -309,87 -153,-2 -304,-62 -414,-169 z m 141,-141 c -76,-74 -114,-171 -108,-278 9,-135 81,-253 195,-325 28,-18 58,-33 91,-45 55,-21 99,-23 156,-15 119,20 193,80 261,175 128,180 71,426 -116,542 -61,38 -132,58 -204,58 -102,-2 -202,-42 -275,-112 z" class="fil18" />
   <ns0:path style="fill:#ffffff" ns1:connector-curvature="0" id="path5284" d="m 20822,15240 c 29,49 -7,123 -80,165 -73,43 -155,37 -183,-12 -29,-49 7,-123 80,-165 73,-42 155,-37 183,12 z" class="fil3" />
   <ns0:path style="fill:#ffffff" ns1:connector-curvature="0" id="path5286" d="m 20532,15406 c 23,25 11,73 -26,107 -37,34 -86,41 -109,16 -22,-25 -11,-73 26,-107 38,-34 86,-41 109,-16 z" class="fil3" />
   <ns0:path style="fill:#ffffff" ns1:connector-curvature="0" id="path5288" d="m 21094,16138 c 16,23 1,60 -32,82 -34,23 -73,24 -89,1 -15,-22 0,-59 33,-82 33,-23 73,-23 88,-1 z" class="fil3" />
  </ns0:g>
</svg>
