<?xml version="1.0" encoding="UTF-8"?>
<svg xmlns="http://www.w3.org/2000/svg" 
     viewBox="16926.6 8108.2 1145.9 1263.6" 
     width="1145.9" height="1263.6"
     style="shape-rendering:geometricPrecision; image-rendering:optimizeQuality; fill-rule:evenodd; clip-rule:evenodd">
<ns0:defs xmlns:ns0="http://www.w3.org/2000/svg" id="defs4">
  <ns0:style type="text/css" id="style6">
   
    .str45 {stroke:#018A00;stroke-width:33.87}
    .str122 {stroke:#6B6B6B;stroke-width:33.87}
    .str0 {stroke:#C60A09;stroke-width:33.87}
    .str90 {stroke:#FFA502;stroke-width:33.87}
    .str87 {stroke:#018A00;stroke-width:22.02}
    .str151 {stroke:#6B6B6B;stroke-width:22.02}
    .str42 {stroke:#C60A09;stroke-width:22.02}
    .str119 {stroke:#FFA502;stroke-width:22.02}
    .str57 {stroke:#048E00;stroke-width:33.33}
    .str129 {stroke:#6B6B6B;stroke-width:33.33}
    .str12 {stroke:#C80D00;stroke-width:33.33}
    .str97 {stroke:#FFA502;stroke-width:33.33}
    .str77 {stroke:#018A00;stroke-width:34.2}
    .str78 {stroke:#048E00;stroke-width:34.2}
    .str144 {stroke:#6B6B6B;stroke-width:34.2}
    .str32 {stroke:#C60A09;stroke-width:34.2}
    .str33 {stroke:#C80D00;stroke-width:34.2}
    .str112 {stroke:#FFA502;stroke-width:34.2}
    .str79 {stroke:#018A00;stroke-width:35.37}
    .str80 {stroke:#048E00;stroke-width:35.37}
    .str145 {stroke:#6B6B6B;stroke-width:35.37}
    .str34 {stroke:#C60A09;stroke-width:35.37}
    .str35 {stroke:#C80D00;stroke-width:35.37}
    .str113 {stroke:#FFA502;stroke-width:35.37}
    .str59 {stroke:#018A00;stroke-width:35.47}
    .str60 {stroke:#048E00;stroke-width:35.47}
    .str131 {stroke:#6B6B6B;stroke-width:35.47}
    .str14 {stroke:#C60A09;stroke-width:35.47}
    .str15 {stroke:#C80D00;stroke-width:35.47}
    .str99 {stroke:#FFA502;stroke-width:35.47}
    .str86 {stroke:#048E00;stroke-width:35.54}
    .str150 {stroke:#6B6B6B;stroke-width:35.54}
    .str41 {stroke:#C80D00;stroke-width:35.54}
    .str118 {stroke:#FFA502;stroke-width:35.54}
    .str70 {stroke:#018A00;stroke-width:35.64}
    .str71 {stroke:#048E00;stroke-width:35.64}
    .str139 {stroke:#6B6B6B;stroke-width:35.64}
    .str25 {stroke:#C60A09;stroke-width:35.64}
    .str26 {stroke:#C80D00;stroke-width:35.64}
    .str107 {stroke:#FFA502;stroke-width:35.64}
    .str72 {stroke:#018A00;stroke-width:35.96}
    .str73 {stroke:#048E00;stroke-width:35.96}
    .str140 {stroke:#6B6B6B;stroke-width:35.96}
    .str27 {stroke:#C60A09;stroke-width:35.96}
    .str28 {stroke:#C80D00;stroke-width:35.96}
    .str108 {stroke:#FFA502;stroke-width:35.96}
    .str81 {stroke:#048E00;stroke-width:36.26}
    .str146 {stroke:#6B6B6B;stroke-width:36.26}
    .str36 {stroke:#C80D00;stroke-width:36.26}
    .str114 {stroke:#FFA502;stroke-width:36.26}
    .str50 {stroke:#018A00;stroke-width:36.34}
    .str51 {stroke:#048E00;stroke-width:36.34}
    .str125 {stroke:#6B6B6B;stroke-width:36.34}
    .str5 {stroke:#C60A09;stroke-width:36.34}
    .str6 {stroke:#C80D00;stroke-width:36.34}
    .str93 {stroke:#FFA502;stroke-width:36.34}
    .str76 {stroke:#048E00;stroke-width:36.42}
    .str143 {stroke:#6B6B6B;stroke-width:36.42}
    .str31 {stroke:#C80D00;stroke-width:36.42}
    .str111 {stroke:#FFA502;stroke-width:36.42}
    .str63 {stroke:#018A00;stroke-width:36.5}
    .str64 {stroke:#048E00;stroke-width:36.5}
    .str134 {stroke:#6B6B6B;stroke-width:36.5}
    .str18 {stroke:#C60A09;stroke-width:36.5}
    .str19 {stroke:#C80D00;stroke-width:36.5}
    .str102 {stroke:#FFA502;stroke-width:36.5}
    .str46 {stroke:#018A00;stroke-width:36.57}
    .str47 {stroke:#048E00;stroke-width:36.57}
    .str123 {stroke:#6B6B6B;stroke-width:36.57}
    .str1 {stroke:#C60A09;stroke-width:36.57}
    .str2 {stroke:#C80D00;stroke-width:36.57}
    .str91 {stroke:#FFA502;stroke-width:36.57}
    .str154 {stroke:#666666;stroke-width:36.88}
    .str61 {stroke:#048E00;stroke-width:37.27}
    .str132 {stroke:#6B6B6B;stroke-width:37.27}
    .str16 {stroke:#C80D00;stroke-width:37.27}
    .str100 {stroke:#FFA502;stroke-width:37.27}
    .str89 {stroke:#018A00;stroke-width:37.58}
    .str44 {stroke:#324984;stroke-width:37.58}
    .str153 {stroke:#6B6B6B;stroke-width:37.58}
    .str121 {stroke:#FFA502;stroke-width:37.58}
    .str48 {stroke:#018A00;stroke-width:38.14;stroke-linecap:round;stroke-linejoin:round}
    .str49 {stroke:#048E00;stroke-width:38.14;stroke-linecap:round;stroke-linejoin:round}
    .str124 {stroke:#6B6B6B;stroke-width:38.14;stroke-linecap:round;stroke-linejoin:round}
    .str3 {stroke:#C60A09;stroke-width:38.14;stroke-linecap:round;stroke-linejoin:round}
    .str4 {stroke:#C80D00;stroke-width:38.14;stroke-linecap:round;stroke-linejoin:round}
    .str92 {stroke:#FFA502;stroke-width:38.14;stroke-linecap:round;stroke-linejoin:round}
    .str84 {stroke:#048E00;stroke-width:38.23}
    .str148 {stroke:#6B6B6B;stroke-width:38.23}
    .str39 {stroke:#C80D00;stroke-width:38.23}
    .str116 {stroke:#FFA502;stroke-width:38.23}
    .str68 {stroke:#048E00;stroke-width:38.24}
    .str137 {stroke:#6B6B6B;stroke-width:38.24}
    .str23 {stroke:#C80D00;stroke-width:38.24}
    .str105 {stroke:#FFA502;stroke-width:38.24}
    .str69 {stroke:#048E00;stroke-width:38.42;stroke-linecap:round;stroke-linejoin:round}
    .str138 {stroke:#6B6B6B;stroke-width:38.42;stroke-linecap:round;stroke-linejoin:round}
    .str24 {stroke:#C80D00;stroke-width:38.42;stroke-linecap:round;stroke-linejoin:round}
    .str106 {stroke:#FFA502;stroke-width:38.42;stroke-linecap:round;stroke-linejoin:round}
    .str43 {stroke:#00B0DC;stroke-width:38.55}
    .str88 {stroke:#018A00;stroke-width:38.55}
    .str152 {stroke:#6B6B6B;stroke-width:38.55}
    .str120 {stroke:#FFA502;stroke-width:38.55}
    .str65 {stroke:#018A00;stroke-width:38.62}
    .str66 {stroke:#048E00;stroke-width:38.62}
    .str135 {stroke:#6B6B6B;stroke-width:38.62}
    .str20 {stroke:#C60A09;stroke-width:38.62}
    .str21 {stroke:#C80D00;stroke-width:38.62}
    .str103 {stroke:#FFA502;stroke-width:38.62}
    .str74 {stroke:#048E00;stroke-width:38.66}
    .str141 {stroke:#6B6B6B;stroke-width:38.66}
    .str29 {stroke:#C80D00;stroke-width:38.66}
    .str109 {stroke:#FFA502;stroke-width:38.66}
    .str75 {stroke:#048E00;stroke-width:38.88}
    .str142 {stroke:#6B6B6B;stroke-width:38.88}
    .str30 {stroke:#C80D00;stroke-width:38.88}
    .str110 {stroke:#FFA502;stroke-width:38.88}
    .str52 {stroke:#018A00;stroke-width:39}
    .str53 {stroke:#048E00;stroke-width:39}
    .str126 {stroke:#6B6B6B;stroke-width:39}
    .str7 {stroke:#C60A09;stroke-width:39}
    .str8 {stroke:#C80D00;stroke-width:39}
    .str94 {stroke:#FFA502;stroke-width:39}
    .str62 {stroke:#048E00;stroke-width:39.14}
    .str133 {stroke:#6B6B6B;stroke-width:39.14}
    .str17 {stroke:#C80D00;stroke-width:39.14}
    .str101 {stroke:#FFA502;stroke-width:39.14}
    .str82 {stroke:#018A00;stroke-width:39.18}
    .str83 {stroke:#048E00;stroke-width:39.18}
    .str147 {stroke:#6B6B6B;stroke-width:39.18}
    .str37 {stroke:#C60A09;stroke-width:39.18}
    .str38 {stroke:#C80D00;stroke-width:39.18}
    .str115 {stroke:#FFA502;stroke-width:39.18}
    .str85 {stroke:#048E00;stroke-width:39.62}
    .str149 {stroke:#6B6B6B;stroke-width:39.62}
    .str40 {stroke:#C80D00;stroke-width:39.62}
    .str117 {stroke:#FFA502;stroke-width:39.62}
    .str58 {stroke:#048E00;stroke-width:39.86}
    .str130 {stroke:#6B6B6B;stroke-width:39.86}
    .str13 {stroke:#C80D00;stroke-width:39.86}
    .str98 {stroke:#FFA502;stroke-width:39.86}
    .str55 {stroke:#018A00;stroke-width:39.96}
    .str56 {stroke:#048E00;stroke-width:39.96}
    .str128 {stroke:#6B6B6B;stroke-width:39.96}
    .str10 {stroke:#C60A09;stroke-width:39.96}
    .str11 {stroke:#C80D00;stroke-width:39.96}
    .str96 {stroke:#FFA502;stroke-width:39.96}
    .str54 {stroke:#048E00;stroke-width:40.62}
    .str127 {stroke:#6B6B6B;stroke-width:40.62}
    .str9 {stroke:#C80D00;stroke-width:40.62}
    .str95 {stroke:#FFA502;stroke-width:40.62}
    .str67 {stroke:#048E00;stroke-width:41.6}
    .str136 {stroke:#6B6B6B;stroke-width:41.6}
    .str22 {stroke:#C80D00;stroke-width:41.6}
    .str104 {stroke:#FFA502;stroke-width:41.6}
    .str156 {stroke:#119702;stroke-width:84.67;stroke-linecap:round;stroke-linejoin:round}
    .str158 {stroke:#747474;stroke-width:84.67;stroke-linecap:round;stroke-linejoin:round}
    .str155 {stroke:#CA1416;stroke-width:84.67;stroke-linecap:round;stroke-linejoin:round}
    .str157 {stroke:#FFB501;stroke-width:84.67;stroke-linecap:round;stroke-linejoin:round}
    .fil2 {fill:none}
    .fil21 {fill:none;fill-rule:nonzero}
    .fil36 {fill:#00B0DC}
    .fil24 {fill:#00CCFF}
    .fil50 {fill:#018A00}
    .fil64 {fill:#048E00}
    .fil51 {fill:#058D00}
    .fil52 {fill:#089001}
    .fil25 {fill:#0ACEFF}
    .fil53 {fill:#0C9301}
    .fil98 {fill:#0F9501}
    .fil54 {fill:#0F9602}
    .fil99 {fill:#119702}
    .fil55 {fill:#139902}
    .fil100 {fill:#149A02}
    .fil26 {fill:#15CFFE}
    .fil101 {fill:#169C02}
    .fil56 {fill:#169C03}
    .fil102 {fill:#199E03}
    .fil57 {fill:#1A9F03}
    .fil103 {fill:#1BA003}
    .fil58 {fill:#1DA204}
    .fil104 {fill:#1EA204}
    .fil27 {fill:#1FD1FE}
    .fil105 {fill:#20A404}
    .fil59 {fill:#21A504}
    .fil106 {fill:#23A704}
    .fil60 {fill:#24A805}
    .fil107 {fill:#25A905}
    .fil61 {fill:#28AB05}
    .fil28 {fill:#2AD3FD}
    .fil49 {fill:#324984}
    .fil29 {fill:#34D5FD}
    .fil1 {fill:#379F96}
    .fil37 {fill:#3B579D}
    .fil38 {fill:#3E5AA0}
    .fil0 {fill:#3FB8AF}
    .fil30 {fill:#3FD6FC}
    .fil39 {fill:#405CA3}
    .fil40 {fill:#435FA7}
    .fil41 {fill:#4662AA}
    .fil42 {fill:#4865AD}
    .fil31 {fill:#49D8FC}
    .fil43 {fill:#4B67B0}
    .fil44 {fill:#4D6AB3}
    .fil45 {fill:#506DB6}
    .fil46 {fill:#5370BA}
    .fil32 {fill:#54DAFB}
    .fil47 {fill:#5572BD}
    .fil48 {fill:#5875C0}
    .fil33 {fill:#5EDCFB}
    .fil91 {fill:#666666}
    .fil92 {fill:#686868}
    .fil34 {fill:#69DDFA}
    .fil78 {fill:#6B6B6B}
    .fil79 {fill:#6D6D6D}
    .fil80 {fill:#6F6F6F}
    .fil81 {fill:#717171}
    .fil93 {fill:#727272}
    .fil82 {fill:#737373}
    .fil35 {fill:#73DFFA}
    .fil94 {fill:#747474}
    .fil83 {fill:#757575}
    .fil84 {fill:#767676}
    .fil95 {fill:#777777}
    .fil85 {fill:#787878}
    .fil96 {fill:#797979}
    .fil86 {fill:#7A7A7A}
    .fil97 {fill:#7B7B7B}
    .fil87 {fill:#7C7C7C}
    .fil116 {fill:#7D7D7D}
    .fil88 {fill:#7E7E7E}
    .fil117 {fill:#7F7F7F}
    .fil89 {fill:gray}
    .fil4 {fill:#C60A09}
    .fil20 {fill:#C80D00}
    .fil5 {fill:#C80F0F}
    .fil6 {fill:#CA1416}
    .fil7 {fill:#CC191C}
    .fil8 {fill:#CE1E23}
    .fil9 {fill:#D02329}
    .fil10 {fill:#D12730}
    .fil11 {fill:#D32C36}
    .fil12 {fill:#D5313D}
    .fil13 {fill:#D73643}
    .fil14 {fill:#D93B4A}
    .fil15 {fill:#DB4050}
    .fil17 {fill:#E6E6E6}
    .fil65 {fill:#FFA502}
    .fil66 {fill:#FFA902}
    .fil67 {fill:#FFAC02}
    .fil68 {fill:#FFB001}
    .fil69 {fill:#FFB301}
    .fil108 {fill:#FFB501}
    .fil70 {fill:#FFB701}
    .fil109 {fill:#FFB801}
    .fil71 {fill:#FFBA01}
    .fil110 {fill:#FFBD01}
    .fil72 {fill:#FFBE01}
    .fil111 {fill:#FFBF00}
    .fil73 {fill:#FFC101}
    .fil112 {fill:#FFC200}
    .fil113 {fill:#FFC400}
    .fil74 {fill:#FFC500}
    .fil114 {fill:#FFC700}
    .fil75 {fill:#FFC800}
    .fil115 {fill:#FFC900}
    .fil76 {fill:#FFCC00}
    .fil3 {fill:white}
    .fil63 {fill:#018A00;fill-rule:nonzero}
    .fil62 {fill:#048E00;fill-rule:nonzero}
    .fil90 {fill:#6B6B6B;fill-rule:nonzero}
    .fil19 {fill:#C60A09;fill-rule:nonzero}
    .fil16 {fill:#C80D00;fill-rule:nonzero}
    .fil23 {fill:#E6E6E6;fill-rule:nonzero}
    .fil77 {fill:#FFA502;fill-rule:nonzero}
    .fil22 {fill:white;fill-rule:nonzero}
    .fil18 {fill:white;fill-opacity:0.501961}
   
  </ns0:style>
   <ns0:clipPath id="id0">
    <ns0:path d="M313 747l24774 0 0 20549 -24774 0 0 -20549z" id="path9" />
   </ns0:clipPath>
 
  
  
  
  
  
  
  
  
  
  
  
  
  
  
  
  
  
  
  
  
  
  
  
  
  
  
  
  
  
  
  
  
  
  
  
  
  
  
  
  
  
  
  
  
  
  
  
  
  
  
  
  
  
  
  
  
  
  
  
  
  
  
  
  
  
  
  
  
  
  
  
  
  
  
  
  
  
  
  
  
  
  
  
  
  
  
  
  
  
  
  
  
  
  
  
  
  
  
  
  
  
  
  
  
  
  
  
  
  
  
  
  
  
  
  
  
  
  
  
  
  
  
  
  
  
  
  
  
  
  
  
  
  
  
  
  
  
  
  
  
  
  
  
  
  
  
  
  
  
  
  
  
  
  
  
  
  
  
  
  
  
  
  
  
  
  
  
  
  
  
  
  
  
  
  
  
  
  
  
  
  
 
   
   
   
   
   
  </ns0:defs>
 
<ns0:style xmlns:ns0="http://www.w3.org/2000/svg" type="text/css" id="style6">
   
    .str45 {stroke:#018A00;stroke-width:33.87}
    .str122 {stroke:#6B6B6B;stroke-width:33.87}
    .str0 {stroke:#C60A09;stroke-width:33.87}
    .str90 {stroke:#FFA502;stroke-width:33.87}
    .str87 {stroke:#018A00;stroke-width:22.02}
    .str151 {stroke:#6B6B6B;stroke-width:22.02}
    .str42 {stroke:#C60A09;stroke-width:22.02}
    .str119 {stroke:#FFA502;stroke-width:22.02}
    .str57 {stroke:#048E00;stroke-width:33.33}
    .str129 {stroke:#6B6B6B;stroke-width:33.33}
    .str12 {stroke:#C80D00;stroke-width:33.33}
    .str97 {stroke:#FFA502;stroke-width:33.33}
    .str77 {stroke:#018A00;stroke-width:34.2}
    .str78 {stroke:#048E00;stroke-width:34.2}
    .str144 {stroke:#6B6B6B;stroke-width:34.2}
    .str32 {stroke:#C60A09;stroke-width:34.2}
    .str33 {stroke:#C80D00;stroke-width:34.2}
    .str112 {stroke:#FFA502;stroke-width:34.2}
    .str79 {stroke:#018A00;stroke-width:35.37}
    .str80 {stroke:#048E00;stroke-width:35.37}
    .str145 {stroke:#6B6B6B;stroke-width:35.37}
    .str34 {stroke:#C60A09;stroke-width:35.37}
    .str35 {stroke:#C80D00;stroke-width:35.37}
    .str113 {stroke:#FFA502;stroke-width:35.37}
    .str59 {stroke:#018A00;stroke-width:35.47}
    .str60 {stroke:#048E00;stroke-width:35.47}
    .str131 {stroke:#6B6B6B;stroke-width:35.47}
    .str14 {stroke:#C60A09;stroke-width:35.47}
    .str15 {stroke:#C80D00;stroke-width:35.47}
    .str99 {stroke:#FFA502;stroke-width:35.47}
    .str86 {stroke:#048E00;stroke-width:35.54}
    .str150 {stroke:#6B6B6B;stroke-width:35.54}
    .str41 {stroke:#C80D00;stroke-width:35.54}
    .str118 {stroke:#FFA502;stroke-width:35.54}
    .str70 {stroke:#018A00;stroke-width:35.64}
    .str71 {stroke:#048E00;stroke-width:35.64}
    .str139 {stroke:#6B6B6B;stroke-width:35.64}
    .str25 {stroke:#C60A09;stroke-width:35.64}
    .str26 {stroke:#C80D00;stroke-width:35.64}
    .str107 {stroke:#FFA502;stroke-width:35.64}
    .str72 {stroke:#018A00;stroke-width:35.96}
    .str73 {stroke:#048E00;stroke-width:35.96}
    .str140 {stroke:#6B6B6B;stroke-width:35.96}
    .str27 {stroke:#C60A09;stroke-width:35.96}
    .str28 {stroke:#C80D00;stroke-width:35.96}
    .str108 {stroke:#FFA502;stroke-width:35.96}
    .str81 {stroke:#048E00;stroke-width:36.26}
    .str146 {stroke:#6B6B6B;stroke-width:36.26}
    .str36 {stroke:#C80D00;stroke-width:36.26}
    .str114 {stroke:#FFA502;stroke-width:36.26}
    .str50 {stroke:#018A00;stroke-width:36.34}
    .str51 {stroke:#048E00;stroke-width:36.34}
    .str125 {stroke:#6B6B6B;stroke-width:36.34}
    .str5 {stroke:#C60A09;stroke-width:36.34}
    .str6 {stroke:#C80D00;stroke-width:36.34}
    .str93 {stroke:#FFA502;stroke-width:36.34}
    .str76 {stroke:#048E00;stroke-width:36.42}
    .str143 {stroke:#6B6B6B;stroke-width:36.42}
    .str31 {stroke:#C80D00;stroke-width:36.42}
    .str111 {stroke:#FFA502;stroke-width:36.42}
    .str63 {stroke:#018A00;stroke-width:36.5}
    .str64 {stroke:#048E00;stroke-width:36.5}
    .str134 {stroke:#6B6B6B;stroke-width:36.5}
    .str18 {stroke:#C60A09;stroke-width:36.5}
    .str19 {stroke:#C80D00;stroke-width:36.5}
    .str102 {stroke:#FFA502;stroke-width:36.5}
    .str46 {stroke:#018A00;stroke-width:36.57}
    .str47 {stroke:#048E00;stroke-width:36.57}
    .str123 {stroke:#6B6B6B;stroke-width:36.57}
    .str1 {stroke:#C60A09;stroke-width:36.57}
    .str2 {stroke:#C80D00;stroke-width:36.57}
    .str91 {stroke:#FFA502;stroke-width:36.57}
    .str154 {stroke:#666666;stroke-width:36.88}
    .str61 {stroke:#048E00;stroke-width:37.27}
    .str132 {stroke:#6B6B6B;stroke-width:37.27}
    .str16 {stroke:#C80D00;stroke-width:37.27}
    .str100 {stroke:#FFA502;stroke-width:37.27}
    .str89 {stroke:#018A00;stroke-width:37.58}
    .str44 {stroke:#324984;stroke-width:37.58}
    .str153 {stroke:#6B6B6B;stroke-width:37.58}
    .str121 {stroke:#FFA502;stroke-width:37.58}
    .str48 {stroke:#018A00;stroke-width:38.14;stroke-linecap:round;stroke-linejoin:round}
    .str49 {stroke:#048E00;stroke-width:38.14;stroke-linecap:round;stroke-linejoin:round}
    .str124 {stroke:#6B6B6B;stroke-width:38.14;stroke-linecap:round;stroke-linejoin:round}
    .str3 {stroke:#C60A09;stroke-width:38.14;stroke-linecap:round;stroke-linejoin:round}
    .str4 {stroke:#C80D00;stroke-width:38.14;stroke-linecap:round;stroke-linejoin:round}
    .str92 {stroke:#FFA502;stroke-width:38.14;stroke-linecap:round;stroke-linejoin:round}
    .str84 {stroke:#048E00;stroke-width:38.23}
    .str148 {stroke:#6B6B6B;stroke-width:38.23}
    .str39 {stroke:#C80D00;stroke-width:38.23}
    .str116 {stroke:#FFA502;stroke-width:38.23}
    .str68 {stroke:#048E00;stroke-width:38.24}
    .str137 {stroke:#6B6B6B;stroke-width:38.24}
    .str23 {stroke:#C80D00;stroke-width:38.24}
    .str105 {stroke:#FFA502;stroke-width:38.24}
    .str69 {stroke:#048E00;stroke-width:38.42;stroke-linecap:round;stroke-linejoin:round}
    .str138 {stroke:#6B6B6B;stroke-width:38.42;stroke-linecap:round;stroke-linejoin:round}
    .str24 {stroke:#C80D00;stroke-width:38.42;stroke-linecap:round;stroke-linejoin:round}
    .str106 {stroke:#FFA502;stroke-width:38.42;stroke-linecap:round;stroke-linejoin:round}
    .str43 {stroke:#00B0DC;stroke-width:38.55}
    .str88 {stroke:#018A00;stroke-width:38.55}
    .str152 {stroke:#6B6B6B;stroke-width:38.55}
    .str120 {stroke:#FFA502;stroke-width:38.55}
    .str65 {stroke:#018A00;stroke-width:38.62}
    .str66 {stroke:#048E00;stroke-width:38.62}
    .str135 {stroke:#6B6B6B;stroke-width:38.62}
    .str20 {stroke:#C60A09;stroke-width:38.62}
    .str21 {stroke:#C80D00;stroke-width:38.62}
    .str103 {stroke:#FFA502;stroke-width:38.62}
    .str74 {stroke:#048E00;stroke-width:38.66}
    .str141 {stroke:#6B6B6B;stroke-width:38.66}
    .str29 {stroke:#C80D00;stroke-width:38.66}
    .str109 {stroke:#FFA502;stroke-width:38.66}
    .str75 {stroke:#048E00;stroke-width:38.88}
    .str142 {stroke:#6B6B6B;stroke-width:38.88}
    .str30 {stroke:#C80D00;stroke-width:38.88}
    .str110 {stroke:#FFA502;stroke-width:38.88}
    .str52 {stroke:#018A00;stroke-width:39}
    .str53 {stroke:#048E00;stroke-width:39}
    .str126 {stroke:#6B6B6B;stroke-width:39}
    .str7 {stroke:#C60A09;stroke-width:39}
    .str8 {stroke:#C80D00;stroke-width:39}
    .str94 {stroke:#FFA502;stroke-width:39}
    .str62 {stroke:#048E00;stroke-width:39.14}
    .str133 {stroke:#6B6B6B;stroke-width:39.14}
    .str17 {stroke:#C80D00;stroke-width:39.14}
    .str101 {stroke:#FFA502;stroke-width:39.14}
    .str82 {stroke:#018A00;stroke-width:39.18}
    .str83 {stroke:#048E00;stroke-width:39.18}
    .str147 {stroke:#6B6B6B;stroke-width:39.18}
    .str37 {stroke:#C60A09;stroke-width:39.18}
    .str38 {stroke:#C80D00;stroke-width:39.18}
    .str115 {stroke:#FFA502;stroke-width:39.18}
    .str85 {stroke:#048E00;stroke-width:39.62}
    .str149 {stroke:#6B6B6B;stroke-width:39.62}
    .str40 {stroke:#C80D00;stroke-width:39.62}
    .str117 {stroke:#FFA502;stroke-width:39.62}
    .str58 {stroke:#048E00;stroke-width:39.86}
    .str130 {stroke:#6B6B6B;stroke-width:39.86}
    .str13 {stroke:#C80D00;stroke-width:39.86}
    .str98 {stroke:#FFA502;stroke-width:39.86}
    .str55 {stroke:#018A00;stroke-width:39.96}
    .str56 {stroke:#048E00;stroke-width:39.96}
    .str128 {stroke:#6B6B6B;stroke-width:39.96}
    .str10 {stroke:#C60A09;stroke-width:39.96}
    .str11 {stroke:#C80D00;stroke-width:39.96}
    .str96 {stroke:#FFA502;stroke-width:39.96}
    .str54 {stroke:#048E00;stroke-width:40.62}
    .str127 {stroke:#6B6B6B;stroke-width:40.62}
    .str9 {stroke:#C80D00;stroke-width:40.62}
    .str95 {stroke:#FFA502;stroke-width:40.62}
    .str67 {stroke:#048E00;stroke-width:41.6}
    .str136 {stroke:#6B6B6B;stroke-width:41.6}
    .str22 {stroke:#C80D00;stroke-width:41.6}
    .str104 {stroke:#FFA502;stroke-width:41.6}
    .str156 {stroke:#119702;stroke-width:84.67;stroke-linecap:round;stroke-linejoin:round}
    .str158 {stroke:#747474;stroke-width:84.67;stroke-linecap:round;stroke-linejoin:round}
    .str155 {stroke:#CA1416;stroke-width:84.67;stroke-linecap:round;stroke-linejoin:round}
    .str157 {stroke:#FFB501;stroke-width:84.67;stroke-linecap:round;stroke-linejoin:round}
    .fil2 {fill:none}
    .fil21 {fill:none;fill-rule:nonzero}
    .fil36 {fill:#00B0DC}
    .fil24 {fill:#00CCFF}
    .fil50 {fill:#018A00}
    .fil64 {fill:#048E00}
    .fil51 {fill:#058D00}
    .fil52 {fill:#089001}
    .fil25 {fill:#0ACEFF}
    .fil53 {fill:#0C9301}
    .fil98 {fill:#0F9501}
    .fil54 {fill:#0F9602}
    .fil99 {fill:#119702}
    .fil55 {fill:#139902}
    .fil100 {fill:#149A02}
    .fil26 {fill:#15CFFE}
    .fil101 {fill:#169C02}
    .fil56 {fill:#169C03}
    .fil102 {fill:#199E03}
    .fil57 {fill:#1A9F03}
    .fil103 {fill:#1BA003}
    .fil58 {fill:#1DA204}
    .fil104 {fill:#1EA204}
    .fil27 {fill:#1FD1FE}
    .fil105 {fill:#20A404}
    .fil59 {fill:#21A504}
    .fil106 {fill:#23A704}
    .fil60 {fill:#24A805}
    .fil107 {fill:#25A905}
    .fil61 {fill:#28AB05}
    .fil28 {fill:#2AD3FD}
    .fil49 {fill:#324984}
    .fil29 {fill:#34D5FD}
    .fil1 {fill:#379F96}
    .fil37 {fill:#3B579D}
    .fil38 {fill:#3E5AA0}
    .fil0 {fill:#3FB8AF}
    .fil30 {fill:#3FD6FC}
    .fil39 {fill:#405CA3}
    .fil40 {fill:#435FA7}
    .fil41 {fill:#4662AA}
    .fil42 {fill:#4865AD}
    .fil31 {fill:#49D8FC}
    .fil43 {fill:#4B67B0}
    .fil44 {fill:#4D6AB3}
    .fil45 {fill:#506DB6}
    .fil46 {fill:#5370BA}
    .fil32 {fill:#54DAFB}
    .fil47 {fill:#5572BD}
    .fil48 {fill:#5875C0}
    .fil33 {fill:#5EDCFB}
    .fil91 {fill:#666666}
    .fil92 {fill:#686868}
    .fil34 {fill:#69DDFA}
    .fil78 {fill:#6B6B6B}
    .fil79 {fill:#6D6D6D}
    .fil80 {fill:#6F6F6F}
    .fil81 {fill:#717171}
    .fil93 {fill:#727272}
    .fil82 {fill:#737373}
    .fil35 {fill:#73DFFA}
    .fil94 {fill:#747474}
    .fil83 {fill:#757575}
    .fil84 {fill:#767676}
    .fil95 {fill:#777777}
    .fil85 {fill:#787878}
    .fil96 {fill:#797979}
    .fil86 {fill:#7A7A7A}
    .fil97 {fill:#7B7B7B}
    .fil87 {fill:#7C7C7C}
    .fil116 {fill:#7D7D7D}
    .fil88 {fill:#7E7E7E}
    .fil117 {fill:#7F7F7F}
    .fil89 {fill:gray}
    .fil4 {fill:#C60A09}
    .fil20 {fill:#C80D00}
    .fil5 {fill:#C80F0F}
    .fil6 {fill:#CA1416}
    .fil7 {fill:#CC191C}
    .fil8 {fill:#CE1E23}
    .fil9 {fill:#D02329}
    .fil10 {fill:#D12730}
    .fil11 {fill:#D32C36}
    .fil12 {fill:#D5313D}
    .fil13 {fill:#D73643}
    .fil14 {fill:#D93B4A}
    .fil15 {fill:#DB4050}
    .fil17 {fill:#E6E6E6}
    .fil65 {fill:#FFA502}
    .fil66 {fill:#FFA902}
    .fil67 {fill:#FFAC02}
    .fil68 {fill:#FFB001}
    .fil69 {fill:#FFB301}
    .fil108 {fill:#FFB501}
    .fil70 {fill:#FFB701}
    .fil109 {fill:#FFB801}
    .fil71 {fill:#FFBA01}
    .fil110 {fill:#FFBD01}
    .fil72 {fill:#FFBE01}
    .fil111 {fill:#FFBF00}
    .fil73 {fill:#FFC101}
    .fil112 {fill:#FFC200}
    .fil113 {fill:#FFC400}
    .fil74 {fill:#FFC500}
    .fil114 {fill:#FFC700}
    .fil75 {fill:#FFC800}
    .fil115 {fill:#FFC900}
    .fil76 {fill:#FFCC00}
    .fil3 {fill:white}
    .fil63 {fill:#018A00;fill-rule:nonzero}
    .fil62 {fill:#048E00;fill-rule:nonzero}
    .fil90 {fill:#6B6B6B;fill-rule:nonzero}
    .fil19 {fill:#C60A09;fill-rule:nonzero}
    .fil16 {fill:#C80D00;fill-rule:nonzero}
    .fil23 {fill:#E6E6E6;fill-rule:nonzero}
    .fil77 {fill:#FFA502;fill-rule:nonzero}
    .fil22 {fill:white;fill-rule:nonzero}
    .fil18 {fill:white;fill-opacity:0.501961}
   
  </ns0:style>
   
<ns0:g xmlns:ns0="http://www.w3.org/2000/svg" xmlns:ns1="http://www.inkscape.org/namespaces/inkscape" id="g9512">
   <ns0:path style="fill:#ffffff" ns1:connector-curvature="0" id="path9514" d="m 17132,9156 c -115,-112 -173,-258 -163,-419 13,-205 122,-382 294,-491 42,-27 88,-50 137,-68 83,-32 150,-35 237,-23 179,30 290,121 393,264 193,272 107,644 -175,818 -93,58 -199,88 -309,88 -153,-2 -304,-62 -414,-169 z m 16,-17 c -110,-107 -166,-248 -157,-402 13,-197 117,-367 283,-472 41,-26 85,-48 131,-66 81,-31 145,-33 228,-21 173,28 280,115 378,254 187,261 103,618 -167,786 -90,55 -192,84 -298,84 -147,-2 -292,-60 -398,-163 z" class="fil3" />
   <ns0:g id="g9516">
    <ns0:path style="fill:#6b6b6b" ns1:connector-curvature="0" id="path9518" d="m 17225,9062 c -51,-50 -89,-111 -110,-179 -36,-113 -13,-255 46,-356 63,-108 157,-180 272,-225 65,-25 117,-26 184,-17 140,23 226,93 306,205 53,75 79,155 81,247 0,252 -205,457 -457,457 -119,-2 -236,-49 -322,-132 z" class="fil78" />
    <ns0:g id="g9520">
     <ns0:path style="fill:#6d6d6d" ns1:connector-curvature="0" id="path9522" d="m 17242,9064 c -48,-47 -85,-105 -105,-169 -33,-107 -11,-244 44,-335 58,-97 150,-163 262,-203 66,-23 120,-25 183,-18 130,18 208,90 281,194 48,72 70,148 68,235 -3,232 -194,419 -428,419 -113,-1 -224,-45 -305,-123 z" class="fil79" />
     <ns0:path style="fill:#6f6f6f" ns1:connector-curvature="0" id="path9524" d="m 17259,9065 c -46,-44 -80,-98 -99,-158 -32,-100 -10,-233 41,-314 53,-87 143,-146 252,-182 67,-20 124,-23 181,-18 120,13 191,86 257,183 43,69 60,142 56,223 -7,211 -183,382 -400,382 -106,-1 -211,-43 -288,-116 z" class="fil80" />
     <ns0:path style="fill:#717171" ns1:connector-curvature="0" id="path9526" d="m 17276,9066 c -44,-41 -76,-91 -94,-147 -30,-93 -7,-222 39,-292 48,-77 137,-129 241,-161 69,-19 128,-22 181,-19 110,9 174,83 232,173 38,66 51,135 43,209 -10,192 -172,346 -370,346 -101,-2 -200,-40 -272,-109 z" class="fil81" />
     <ns0:path style="fill:#737373" ns1:connector-curvature="0" id="path9528" d="m 17293,9068 c -41,-38 -71,-85 -88,-137 -28,-86 -6,-211 36,-271 43,-67 130,-112 231,-140 70,-16 131,-19 180,-19 99,4 156,79 207,162 34,63 42,128 30,197 -13,172 -161,308 -341,308 -95,-1 -188,-37 -255,-100 z" class="fil82" />
     <ns0:path style="fill:#757575" ns1:connector-curvature="0" id="path9530" d="m 17309,9069 c -38,-35 -66,-78 -82,-126 -26,-79 -3,-200 35,-250 37,-56 122,-94 220,-119 70,-14 135,-17 178,-19 90,-1 139,75 183,151 29,60 33,122 18,185 -16,151 -151,271 -313,271 -88,-1 -175,-34 -239,-93 z" class="fil83" />
     <ns0:path style="fill:#767676" ns1:connector-curvature="0" id="path9532" d="m 17326,9071 c -35,-32 -62,-72 -76,-116 -25,-73 -2,-189 32,-229 32,-46 115,-77 210,-97 71,-12 138,-16 177,-20 79,-6 121,72 158,140 24,58 24,116 5,173 -19,131 -139,233 -284,233 -82,-1 -163,-31 -222,-84 z" class="fil84" />
     <ns0:path style="fill:#787878" ns1:connector-curvature="0" id="path9534" d="m 17343,9072 c -33,-29 -57,-65 -71,-105 -22,-66 0,-178 30,-208 27,-35 109,-59 200,-76 72,-9 141,-14 175,-20 70,-11 104,68 134,129 19,55 14,110 -8,161 -22,111 -128,196 -255,196 -76,-1 -150,-28 -205,-77 z" class="fil85" />
     <ns0:path style="fill:#7a7a7a" ns1:connector-curvature="0" id="path9536" d="m 17360,9074 c -30,-27 -53,-59 -65,-95 -21,-59 2,-167 27,-187 22,-25 102,-42 189,-54 74,-8 146,-13 175,-21 60,-16 86,65 109,118 14,53 5,103 -20,149 -26,90 -118,159 -226,159 -70,-1 -139,-26 -189,-69 z" class="fil86" />
     <ns0:path style="fill:#7c7c7c" ns1:connector-curvature="0" id="path9538" d="m 17377,9075 c -28,-23 -48,-52 -60,-83 -19,-53 4,-157 25,-166 17,-16 95,-25 179,-34 75,-5 149,-10 173,-21 50,-21 69,61 85,107 9,50 -4,97 -33,137 -29,70 -107,121 -197,121 -64,0 -127,-22 -172,-61 z" class="fil87" />
     <ns0:path style="fill:#7e7e7e" ns1:connector-curvature="0" id="path9540" d="m 17393,9077 c -24,-21 -43,-46 -53,-73 -17,-47 5,-146 22,-145 12,-5 88,-8 169,-12 76,-4 152,-9 172,-22 40,-25 52,57 60,97 5,46 -13,90 -45,124 -33,49 -97,84 -169,84 -58,-1 -114,-20 -156,-53 z" class="fil88" />
    </ns0:g>
    <ns0:path style="fill:#808080" ns1:connector-curvature="0" id="path9542" d="m 17410,9078 c -22,-17 -39,-39 -48,-62 -15,-40 8,-135 20,-124 13,11 300,17 330,-13 29,-30 34,54 35,86 0,88 -89,159 -198,159 -51,-1 -102,-17 -139,-46 z" class="fil89" />
   </ns0:g>
   <ns0:path style="fill:#808080" ns1:connector-curvature="0" id="path9544" d="m 17261,8753 c -192,105 -130,-443 286,-442 452,2 474,519 306,442 -126,-57 -458,-72 -592,0 z" class="fil89" />
   <ns0:path style="fill:#808080" ns1:connector-curvature="0" id="path9546" d="m 17547,9064 c -178,-2 -342,-103 -414,-268 -16,-39 -23,-77 -24,-119 -26,161 20,299 145,406 84,71 184,105 293,107 251,0 454,-203 454,-453 -1,-22 -2,-41 -5,-63 -33,227 -220,387 -449,390 z" class="fil89" />
   <ns0:g id="g9548">
    <ns0:g id="g9550">
     <ns0:path style="fill:none;stroke:#6b6b6b;stroke-width:38.24000168" ns1:connector-curvature="0" id="path9552" d="m 17710,8747 c 91,0 116,93 119,198 0,7 0,21 -12,21 l -100,0 c -2,-60 -11,-116 -32,-158 -8,-17 -17,-31 -29,-43 14,-11 32,-18 54,-18 z m -157,-1 c -105,0 -134,108 -137,230 0,8 0,24 13,24 l 241,0 c 12,0 12,-17 12,-23 l 0,-11 0,0 c -1,-18 -2,-36 -4,-53 -11,-91 -45,-167 -125,-167 z m 159,-203 c -14,0 -28,3 -40,9 13,20 21,44 21,69 0,36 -15,68 -38,91 l 0,0 -2,2 c 16,13 37,20 59,20 53,0 95,-42 95,-95 0,-53 -42,-96 -95,-96 z m -320,204 c -92,0 -116,93 -119,198 0,7 0,21 11,21 l 101,0 c 2,-60 10,-116 31,-158 8,-17 18,-31 30,-43 -15,-11 -32,-18 -54,-18 z m -2,-204 c 14,0 27,3 40,9 -13,20 -21,44 -21,69 0,36 14,68 38,91 l 0,0 2,2 c -16,13 -37,20 -59,20 -53,0 -96,-42 -96,-95 0,-53 43,-96 96,-96 z m 161,-32 c 61,0 111,49 111,110 0,62 -50,111 -111,111 -61,0 -110,-49 -110,-111 0,-61 49,-110 110,-110 z" class="fil2 str137" />
     <ns0:path style="fill:#6b6b6b" ns1:connector-curvature="0" d="m 17710,8747 c 91,0 116,93 119,198 0,7 0,21 -12,21 l -100,0 c -2,-60 -11,-116 -32,-158 -8,-17 -17,-31 -29,-43 14,-11 32,-18 54,-18 z m -157,-1 c -105,0 -134,108 -137,230 0,8 0,24 13,24 l 241,0 c 12,0 12,-17 12,-23 l 0,-11 0,0 c -1,-18 -2,-36 -4,-53 -11,-91 -45,-167 -125,-167 z m 159,-203 c -14,0 -28,3 -40,9 13,20 21,44 21,69 0,36 -15,68 -38,91 l 0,0 -2,2 c 16,13 37,20 59,20 53,0 95,-42 95,-95 0,-53 -42,-96 -95,-96 z m -320,204 c -92,0 -116,93 -119,198 0,7 0,21 11,21 l 101,0 c 2,-60 10,-116 31,-158 8,-17 18,-31 30,-43 -15,-11 -32,-18 -54,-18 z m -2,-204 c 14,0 27,3 40,9 -13,20 -21,44 -21,69 0,36 14,68 38,91 l 0,0 2,2 c -16,13 -37,20 -59,20 -53,0 -96,-42 -96,-95 0,-53 43,-96 96,-96 z m 161,-32 c 61,0 111,49 111,110 0,62 -50,111 -111,111 -61,0 -110,-49 -110,-111 0,-61 49,-110 110,-110 z" class="fil78" id="path9554" />
    </ns0:g>
    <ns0:g id="g9556">
     <ns0:g id="g9558">
      <ns0:path style="fill:none;stroke:#6b6b6b;stroke-width:38.24000168" ns1:connector-curvature="0" id="path9560" d="m 17710,8710 c 91,0 116,93 119,198 0,7 0,21 -12,21 l -100,0 c -2,-60 -11,-116 -32,-158 -8,-17 -17,-31 -29,-43 14,-12 32,-18 54,-18 z m -157,-1 c -105,0 -134,108 -137,230 0,8 0,24 13,24 l 241,0 c 12,0 12,-17 12,-24 l 0,-10 0,0 c -1,-18 -2,-36 -4,-53 -11,-92 -45,-167 -125,-167 z m 159,-203 c -14,0 -28,3 -40,9 13,20 21,44 21,69 0,36 -15,68 -38,91 l 0,0 -2,2 c 16,13 37,20 59,20 53,0 95,-43 95,-95 0,-53 -42,-96 -95,-96 z m -320,204 c -92,0 -116,93 -119,198 0,7 0,21 11,21 l 101,0 c 2,-60 10,-116 31,-158 8,-17 18,-31 30,-43 -15,-12 -32,-18 -54,-18 z m -2,-204 c 14,0 27,3 40,9 -13,20 -21,44 -21,69 0,36 14,68 38,91 l 0,0 2,2 c -16,13 -37,20 -59,20 -53,0 -96,-43 -96,-95 0,-53 43,-96 96,-96 z m 161,-32 c 61,0 111,49 111,110 0,61 -50,111 -111,111 -61,0 -110,-50 -110,-111 0,-61 49,-110 110,-110 z" class="fil2 str137" />
      <ns0:path style="fill:#e6e6e6" ns1:connector-curvature="0" d="m 17710,8710 c 91,0 116,93 119,198 0,7 0,21 -12,21 l -100,0 c -2,-60 -11,-116 -32,-158 -8,-17 -17,-31 -29,-43 14,-12 32,-18 54,-18 z m -157,-1 c -105,0 -134,108 -137,230 0,8 0,24 13,24 l 241,0 c 12,0 12,-17 12,-24 l 0,-10 0,0 c -1,-18 -2,-36 -4,-53 -11,-92 -45,-167 -125,-167 z m 159,-203 c -14,0 -28,3 -40,9 13,20 21,44 21,69 0,36 -15,68 -38,91 l 0,0 -2,2 c 16,13 37,20 59,20 53,0 95,-43 95,-95 0,-53 -42,-96 -95,-96 z m -320,204 c -92,0 -116,93 -119,198 0,7 0,21 11,21 l 101,0 c 2,-60 10,-116 31,-158 8,-17 18,-31 30,-43 -15,-12 -32,-18 -54,-18 z m -2,-204 c 14,0 27,3 40,9 -13,20 -21,44 -21,69 0,36 14,68 38,91 l 0,0 2,2 c -16,13 -37,20 -59,20 -53,0 -96,-43 -96,-95 0,-53 43,-96 96,-96 z m 161,-32 c 61,0 111,49 111,110 0,61 -50,111 -111,111 -61,0 -110,-50 -110,-111 0,-61 49,-110 110,-110 z" class="fil17" id="path9562" />
     </ns0:g>
     <ns0:path style="fill:#ffffff" ns1:connector-curvature="0" id="path9564" d="m 17549,8474 0,221 c -60,-1 -108,-50 -108,-111 0,-60 48,-109 108,-110 z m 0,235 0,254 -120,0 c -13,0 -13,-16 -13,-24 3,-121 31,-227 133,-230 z m -157,1 c -92,0 -116,93 -119,198 0,7 0,21 11,21 l 101,0 c 2,-60 10,-116 31,-158 8,-17 18,-31 30,-43 -15,-12 -32,-18 -54,-18 z m -2,-204 c 14,0 27,3 40,9 -13,20 -21,44 -21,69 0,36 14,68 38,91 l 0,0 2,2 c -17,13 -37,20 -59,20 -53,0 -96,-43 -96,-95 0,-53 43,-96 96,-96 z" class="fil3" />
    </ns0:g>
   </ns0:g>
   <ns0:path style="fill:#ffffff;fill-opacity:0.5019609" ns1:connector-curvature="0" id="path9566" d="m 17133,9155 c -115,-112 -173,-258 -163,-418 13,-205 121,-382 293,-491 43,-26 88,-49 137,-67 83,-32 150,-35 236,-23 180,30 291,120 393,264 193,271 107,642 -174,816 -93,58 -199,88 -309,88 -153,-2 -303,-62 -413,-169 z m 385,-825 c 75,82 47,228 -61,328 -109,99 -257,114 -332,33 -52,-57 -66,-265 -86,46 -9,141 42,270 143,368 97,94 230,147 365,149 87,0 172,-21 248,-63 -22,-1 -41,-9 -54,-23 -34,-37 -22,-103 27,-147 49,-45 115,-51 149,-15 18,20 23,47 16,76 152,-170 180,-427 39,-625 -90,-126 -188,-206 -346,-232 -76,-11 -135,-9 -208,20 -30,11 -58,24 -85,39 72,-16 141,-2 185,46 z" class="fil18" />
   <ns0:path style="fill:#ffffff;fill-opacity:0.5019609" ns1:connector-curvature="0" id="path9568" d="m 17132,9156 c -115,-112 -173,-258 -163,-419 13,-205 122,-382 294,-491 42,-27 88,-50 137,-68 83,-32 150,-35 237,-23 179,30 290,121 393,264 193,272 107,644 -175,818 -93,58 -199,88 -309,88 -153,-2 -304,-62 -414,-169 z m 142,-142 c -77,-74 -115,-171 -108,-277 8,-136 80,-253 194,-326 28,-17 58,-32 91,-45 55,-21 99,-22 157,-14 119,19 192,79 260,175 128,180 71,426 -115,541 -62,38 -133,58 -205,58 -102,-1 -202,-41 -274,-112 z" class="fil18" />
   <ns0:path style="fill:#ffffff" ns1:connector-curvature="0" id="path9570" d="m 17522,8253 c 29,49 -7,123 -80,166 -73,42 -155,37 -183,-12 -29,-49 7,-123 80,-166 73,-42 155,-37 183,12 z" class="fil3" />
   <ns0:path style="fill:#ffffff" ns1:connector-curvature="0" id="path9572" d="m 17232,8419 c 23,26 11,73 -26,107 -37,34 -86,41 -109,16 -22,-25 -11,-73 27,-107 37,-33 85,-41 108,-16 z" class="fil3" />
   <ns0:path style="fill:#ffffff" ns1:connector-curvature="0" id="path9574" d="m 17795,9152 c 15,22 0,59 -33,82 -34,23 -73,23 -89,0 -15,-22 0,-59 33,-82 34,-23 73,-23 89,0 z" class="fil3" />
  </ns0:g>
</svg>
